<svg viewBox="0 0 403.735 148.295" height="560.484" width="1525.929" xmlns="http://www.w3.org/2000/svg"><path d="M191.67 147.903l-1.19-.392-2.116-1.018-2.117-1.017-3.572-2.157-3.572-2.158-2.381-1.79-2.381-1.789-3.193-3.15-3.193-3.15-2.236-2.382-2.237-2.38-1.209-1.588-1.208-1.588-1.204-1.72-1.203-1.72-.699-.793-.699-.794-.191-.265-.19-.265-.689-.925-.688-.926-1.052-1.862-1.053-1.861.418-.032.417-.031 2.382-.012 2.38-.012.398.025.397.026 4.63-.182 4.63-.181.882 1.317.882 1.318 1.242 1.273 1.243 1.272.693.926.693.926.499.53.5.529.397.574.397.573 1.727 1.808 1.728 1.807 1.57 1.344 1.57 1.343.427.244.428.244 1.098.926 1.098.926.856.725.855.725.463.153.463.153v.741l.331-.116.33-.116.616.514.616.514-.168.272-.168.272h.56v-.483l.728.272.727.273 1.455-.947 1.456-.947 1.455-1.064 1.455-1.064.926-.82.926-.818.662-.58.661-.581 1.852-1.562 1.852-1.561 1.52-1.316 1.521-1.316 2.05-2.54 2.05-2.541 1.425-1.72 1.425-1.72.212-.232.211-.233.746-.095.747-.096 5.142-.004 5.143-.004.211.332.211.333.004-.275.004-.274.465-.035.466-.035.262-.053.262-.052.86.03.86.032v.794h-.493l-.168.529-.168.53h-.847l.175.174.176.175-.66.866-.66.866v.271l-1.349 1.8-1.348 1.8-1.514 1.588-1.513 1.587-.728.997-.727.998-.288-.179-.288-.178.183.297.183.296-2.977 3.118-2.976 3.118-.275.265-.274.264-2.382 1.978-2.38 1.978-.795.815-.793.815-1.275.911-1.276.911-2.296 1.847-2.297 1.846-.088.204-.089.205h-.731l-.869.739-.869.739-1.72 1.12-1.72 1.119-.217-.073-.217-.073-.257.46-.257.46-.452.241-.452.242zm.634-1.562l.16-.418v-.222l-.33.067-.33.066-.182.252-.18.252.13.21.13.212h.441zm-1.692-.507v-.133h-.264v.265h.264zm2.646-.794v-.132h-.264v.264h.264zm3.837-.662l.163-.264h-.56v.529h.233zm-4.366-.661v-.132h-.264v.264h.264zm4.818-.818l-.247-.44-.184.298-.185.299h.56l.022.463.02.463.13-.321.13-.32-.246-.442zm-3.76.553v-.132h-.264v.265h.264zm-5.027-.264v-.132h-.264v.264h.264zm7.144-.132v-.265h-.498l-.163.265-.164.264h.825zm-1.94-.441l-.177-.177v.706l.177-.177.176-.176zm5.115.044v-.133h-.264v.265h.264zm-3.816-.485l.383.147-.168-.438-.168-.437-.298.099-.298.1-.062.506-.061.508.144-.316.145-.316zm-4.386-.044v-.133h-.265v.265h.265zm2.117 0v-.133h-.265v.265h.265zm-4.763-.265v-.132h-.264v.264h.264zm.794 0v-.132h-.265v.264h.265zm.794-.265v-.132h-.265v.265h.265zm9.26 0v-.132h-.264v.265h.264zm-4.498-.793v-.133h-.264v.265h.264zm4.763 0v-.133h-.265v.265h.265zm-9.79-.265v-.132h-.264v.264h.264zm1.588 0v-.132h-.265v.264h.265zm4.233 0v-.132h-.265v.264h.265zm-7.144-.265v-.132h-.264v.265h.264zm8.731 0v-.132h-.264v.265h.264zm-3.704-.264v-.132h-.264v.264h.264zm-4.641-.643l.152-.247-.269-.166-.269-.166v.825h.234zm1.5-.354l-.33-.326.181.474.18.475.149-.148.148-.148zm-7.971-.061v-.133h-.265v.265h.265zm-1.059-.794v-.132h-.264v.264h.264zm7.056-.573l-.176-.177-.177.177-.176.176h.705zm3.792.044v-.133h-.264v.265h.264zm-3.44-1.059v-.132h-.264v.265h.265zm-.264-1.058v-.132h-.264v.264h.264zm5.292 0v-.132h-.265v.264h.265zm-15.875-.265v-.132h-.265v.265h.265zm11.377 0v-.132h-.265v.265h.265zm2.646 0v-.132h-.265v.265h.265zm.529-1.058v-.132h-.265v.264h.265zm2.822-.044l-.176-.176-.177.176-.176.176h.706zm-6.725-1.276l-.126-.658-.235.145-.235.145.274.514.275.513h.172zm-4.828-1.061v-.132h-.265v.264h.265zm14.552 0v-.132h-.265v.264h.265zm3.44-.794v-.132h-.265v.264h.264zm-17.992-.264v-.133h-.265v.265h.265zm19.05 0v-.133h-.265v.265h.265zm-27.782-.794v-.133h-.264v.265h.264zm24.871 0v-.133h-.264v.265h.264zm1.852 0v-.133h-.264v.265h.264zm.794 0v-.133h-.264v.265h.264zm3.175 0v-.133h-.264v.265h.264zm-1.852-.265v-.132h-.265v.264h.265zm3.44 0v-.132h-.265v.264h.265zm-35.455-.794v-.132h-.264v.265h.264zm29.105 0v-.132h-.265v.265h.265zm2.645 0v-.132h-.264v.265h.264zm.53 0v-.132h-.265v.265h.265zm-33.338-.249v-.116l-.264-.164-.265-.163v.56h.529zm35.19-1.338v-.132h-.265v.264h.265zm-3.44-.265v-.132h-.264v.265h.264zm-35.719-.264v-.133h-.264v.265h.264zm36.513 0v-.133h-.265v.265h.265zm-37.13-.573l-.176-.177v.706l.176-.177.176-.176zm6.085.264l-.176-.176-.176.176-.177.176h.706zm33.69.044v-.132h-.264v.264h.265zm-.617-.838l-.176-.176-.176.176-.177.177h.706zm.618-.22v-.132h-.265v.264h.265zm-36.777-.265v-.132h-.265v.265h.265zm3.086-1.896l-.176-.176-.176.176-.177.176h.706zm35.014-.75v-.132h-.265v.265h.265zm14.816-.793v-.133h-.264v.265h.264zm-10.318-.794v-.132h-.265v.264h.265zm10.76-.309l-.177-.176-.176.176-.177.177h.706zm-11.554-1.014v-.132h-.265v.264h.265zm14.552-.265v-.132h-.265v.265h.265zm-57.415-.529v-.132h-.264v.265h.264zm43.127 0v-.132h-.264v.265h.264zm-42.068-.793v-.133h-.265v.265h.265zm1.72-.133l.163-.264h-.265l-.163.264-.164.265h.265zm54.9-.132v-.132h-.264v.264h.264zm.662-.662l.163-.264h-.264l-.164.264-.163.265h.264zm-63.103-.132v-.132h-.265v.264h.265zm49.741 0v-.132h-.264v.264h.264zm11.907 0v-.132h-.265v.264h.265zm.793 0v-.132h-.264v.264h.264zm-1.587-.794v-.132h-.265v.265h.265zm-56.092-.264v-.132h-.264v.264h.264zm59.796 0v-.132h-.264v.264h.264zm-4.233-.265v-.132h-.265v.265h.265zm-65.617-.264v-.133h-.264v.265h.264zm1.323-.265v-.132h-.265v.264h.265zm66.851-1.102l-.176-.177-.176.177-.177.176h.706zm1.147.044v-.133h-.265v.265h.265zm-2.646-.265v-.132h-.264v.264h.264zm1.323-.794v-.132h-.265v.265h.265zm105.172-7.214l-1.058-.07-1.852-.437-1.853-.437-1.455-.647-1.455-.646-1.72-.572-1.72-.573-1.983-1.316-1.984-1.317-.927-.927-.926-.928-1.871-2.247-1.871-2.248-.54-.793-.54-.794-.336-1.059-.335-1.058-.192-.264-.192-.265-.33-1.323-.328-1.323-.356-2.117-.356-2.116.09-3.175.09-3.175.278-2.117.277-2.117.326-.926.325-.926.576-1.058.576-1.058.635-1.19.634-1.192.143-.132.142-.132.519-.83.519-.828 2.646-2.831 2.646-2.83 1.378-.895 1.378-.894 1.665-.775 1.664-.776 1.058-.311 1.059-.312 1.365-.338 1.365-.338-.136.356-.137.357h.56l.244-.437.244-.437.629-.07.628-.071 1.19-.176 1.192-.175.925.034.926.035.265.27.265.269-.53.403-.529.403.53-.1.529-.101-.048-.702-.048-.702.313.1.312.099 1.852.147 1.852.148.76.146.76.145 2.283.802 2.283.802.655.13.654.128 2.124.93 2.123.93.229.222.229.223-.674 1.411-.674 1.412-1.119 2.91-1.118 2.91-.367.568-.367.568-.848-.277-.847-.276-.53-.198-.529-.198-.985-.433-.985-.433-1.925-.491-1.926-.491-1.487-.125-1.487-.125-.34-.21-.34-.21.156.251.154.25-1.626.065-1.626.064-1.464.421-1.465.422-.992.5-.992.502-.004-.204-.004-.204-.194.277-.195.278-.925.647-.925.647-.398-.057-.398-.057.328.146.328.145-1.383 1.571-1.382 1.57-.896 2.444-.895 2.443-.096 3.175-.096 3.175.41 1.948.41 1.948.625 1.36.625 1.359 1.011.942 1.011.942 1.059.67 1.058.669 1.058.466 1.059.466.529.202.529.202 1.19.318 1.191.318 1.588.266 1.587.267 2.117-.16 2.117-.16 1.477-.355 1.477-.355 2.85-1.395 2.849-1.395.232.369.232.369.518 1.587.517 1.588 1.208 3.002 1.207 3.003v.243l-.264-.163-.265-.164v.809l.397-.152.397-.153v.315l-1.07.675-1.069.675-2.7.907-2.702.907-.087-.253-.088-.254-.394.394-.395.395h-.787l.168-.33.167-.331-.35.417-.35.417-.595.153-.595.153-.158-.255-.158-.256-.32.437-.319.436-.383-.067-.383-.066-.661.175-.662.176-2.91.066-2.91.066-1.059-.07zm12.303-2.046v-.132h-.265v.264h.265zm-1.411-.309l-.176-.176-.177.176-.176.177h.705zm-.176-2.072v-.133h-.265v.265h.265zm8.995 0v-.133h-.264v.265h.264zm-8.202-.794v-.132h-.264v.264h.264zm8.202-.53v-.132h-.264v.265h.264zm-6.085-6.35v-.132h-.265v.265h.265zm-32.808-17.197v-.132h-.265v.264h.265zm-.53-.265v-.132h-.264v.265h.264zm.794-.529v-.132h-.264v.264h.264zm10.76-7.188l-.176-.176v.705l.176-.176.176-.176zm1.411-2.072v-.133h-.265v.265h.265zm-2.91-.265v-.132h-.265v.264h.265zm5.291-1.587v-.133h-.264v.265h.264zm-1.94-.574l-.176-.176-.177.176-.176.177h.705zm7.232-.75v-.132h-.265v.265h.265zm2.249-.132l-.164-.264h.649l-.138-.139-.139-.138-.457.175-.457.175.353.224.353.224.082.004.082.004-.164-.265zm1.455-.396v-.133h-.264v.265h.264zm11.377 0v-.133h-.264v.265h.264zm-10.583-.265v-.132h-.265v.264h.265zm-3.557-.637l-.148-.24-.529.139-.529.138v.203h1.355zm.823.064l-.177-.177-.176.177-.176.176h.705zm.794-.53l-.177-.176-.176.177-.177.176h.706zm4.498-1.322l-.177-.177v.706l.177-.177.176-.176zm-2.029-.22v-.133h-.265v.264h.265zm-.794-1.324v-.132h-.264v.265h.264zm12.7 0v-.132h-.264v.265h.264zm-14.816-.264v-.133h-.265v.265h.265zm15.875-.794v-.132h-.265v.264h.265zm-15.082-1.588v-.132h-.264v.265h.264zm-7.232-.837l-.176-.177v.706l.176-.177.177-.176zm-1.234.044v-.133h-.265v.265h.265zm3.968 0v-.133h-.264v.265h.264zm-5.38-.309l-.176-.176-.176.176-.177.176h.706zm4.587.044v-.132h-.265v.264h.265zm2.646-.264v-.133h-.265v.265h.265zm-.794-.265v-.132h-.265v.264h.265zm-4.498-.265v-.132h-.265v.265h.265zm3.087-.044l-.177-.176-.176.176-.176.177h.705zm2.289.004l.172-.172-.459-.349-.459-.348h-.529l.469.272.468.273-.153.248-.154.249h.472l.173-.173zm3.267-.268l-.176-.177v.706l.176-.177.176-.176zm1.411.308v-.132h-.265v.265h.265zm-4.057-.838l-.176-.176v.706l.176-.177.177-.176zm.978.044l.152-.396h-.513v.793h.208zm3.785.22l-.177-.175-.176.176-.177.176h.706zm.617.045v-.132h-.265v.264h.265zm-1.94-.309l-.177-.176-.176.176-.176.177h.705zm-3.88-.22v-.132h-.265v.264h.264zm4.497 0v-.132h-.265v.264h.265zm-161.925 52.442l-.661-.334-.503-1.05-.503-1.052-.345-1.124-.344-1.125h.504v-.777l.397.152.397.153v-.586l-.331.066-.33.066.056-.304.057-.303-.52.136-.52.136-.008.3-.008.3-.224-.397-.225-.397-.192-.629-.193-.628.277.171.277.171-.04-.535-.04-.534-.507.16-.506.16.181-.292.181-.293h.732l.161-.262.162-.261-.378.145-.379.145-.12-.82-.12-.822.352.135.353.136V94.9h-.825l.163-.264.164-.265h-.499l-.138.53-.139.528h-.459l-.64-1.918-.64-1.918-1.423-3.704-1.423-3.704-.383-1.24-.384-1.241.06-.215.058-.215-.583-1.114-.582-1.114v-.675l-.638-1.326-.638-1.327-.932-2.646-.932-2.646-.436-1.587-.435-1.588-.404-1.19-.404-1.191-.2-.53-.2-.528-.435-1.323-.434-1.323.005-.265.005-.264.256.397.257.396.004-.404.004-.404-.556-.476-.556-.476.112-.59.113-.588-.35-.327-.35-.327v-1.241l-.396-.759-.395-.758-.002-.447-.002-.447-.265-.164-.264-.163v-.498h.793l.004.33.004.331.203-.32.204-.319 1.71.002 1.712.002 3.767-.034 3.768-.035.755.166.754.166.285 1.112.286 1.113.568 2.117.569 2.116 1.078 3.175 1.079 3.175.05.53.049.529.336 1.19.335 1.19.356 1.06.355 1.058.13.661.13.661 1.086 3.032 1.086 3.031.118.118.117.117.338-.767.338-.768.72-1.112.72-1.112 1.89-3.915 1.891-3.915 1.313-2.778 1.314-2.778.968-1.709.967-1.709 1.368-3.053 1.367-3.054.154.066.154.066h1.332l2.641 5.433 2.642 5.434v.452l.89 1.815.89 1.815.965 2.017.964 2.017.605.893.606.894 1.376 2.442 1.377 2.443v.57l.214-.133.215-.133.61-1.933.61-1.934.478-1.587.478-1.588.406-1.455.406-1.455.31-1.257.31-1.256h.492l-.146-.237-.147-.236.375-1.063.375-1.062-.122-.122-.122-.123.252-.629.252-.63.793-2.116.794-2.117.721-2.432.722-2.432 6.813.021 6.813.022-.208.725-.208.724-.406.893-.406.892-.45 1.587-.45 1.588-.382 1.323-.38 1.322-.22.53-.221.529-.669 2.116-.668 2.117-.836 2.25-.835 2.248-.344 1.058-.344 1.059-.72 1.587-.719 1.588-1.695 5.027-1.695 5.027-1.463 4.434-1.464 4.434-1.554 3.503-1.554 3.504-.184.734-.184.735-.482.258-.48.257H207.053l-.39-.727-.39-.728-1.116-2.117-1.116-2.116-1.399-2.382-1.399-2.38-1.031-2.117-1.032-2.117-1.675-3.175-1.675-3.175-.2-.265-.2-.264-1.328-2.646-1.33-2.646-.706-1.587-.707-1.588-1.447 2.91-1.448 2.91-1.306 2.514-1.306 2.514-.2.275-.202.275-.081.386-.082.387-1.534 3.175-1.534 3.175-1.006 2.183-1.005 2.183h-.446v.793h-.617l.16.161.161.16-1.312 2.552-1.312 2.551-.5.596-.501.595-.09-.004-.09-.004-.662-.334zm-.53-1.907v-.132h-.264v.265h.265zm-.528-.793v-.133h-.265v.265h.265zm1.587 0v-.133h-.264v.265h.264zm.794-2.779v-.264h-.56l.163.264.164.265h.233zm2.558-.44l-.177-.177-.176.176-.177.177h.706zm-6.35-1.323l-.177-.177v.706l.177-.177.176-.176zm4.321-.486v-.132h-.264v.265h.264zm-3.263-.308l-.176-.177-.177.177-.176.176h.705zm1.058-.53l-.176-.176v.706l.176-.177.177-.176zm-1.587-.264l-.177-.176-.176.176-.176.176h.705zm.617.044v-.132h-.264v.264h.264zm-.264-1.058v-.133h-.265v.265h.265zm3.175-.53v-.132h-.265v.265h.265zm3.704 0v-.132h-.265v.265h.265zm-6.88-1.322v-.133h-.264v.265h.265zm-1.058-.794v-.132h-.264v.264h.264zm2.646 0v-.132h-.265v.264h.265zm-3.043-.397l.164-.265h-.265l-.163.265-.164.265h.265zm1.456.132v-.132h-.265v.265h.265zm-1.853-.529v-.132h-.264v.264h.264zm9.702-.573l-.177-.176v.705l.177-.176.176-.177zm1.411.309v-.133h-.265v.265h.265zm-11.113-.53v-.132h-.264v.265h.264zm8.732 0v-.132h-.265v.265h.265zm-7.409-.529v-.132h-.264v.265h.264zm2.117 0v-.132h-.265v.265h.265zm8.467-.793v-.133h-.265v.265h.265zm.529-.265v-.132h-.265v.264h.265zm-7.144-.53v-.132h-.264v.265h.264zm7.32-.308l-.176-.176-.176.176-.177.176h.706zm-.176-1.014v-.132h-.265v.264h.265zm-12.17-1.058v-.133h-.266v.265h.265zm8.466 0v-.133h-.265v.265h.265zm5.027-.53v-.132h-.265v.265h.265zm-13.759-.529v-.132h-.264v.264h.264zm14.2-.044l-.177-.176-.176.176-.176.176h.705zm-2.293-.485v-.132h-.265v.264h.265zm2.381 0v-.132h-.265v.264h.265zm-.794-.265v-.132h-.264v.265h.264zm1.19-.396l.164-.265h-.56v.529h.233zm-10.98-.662v-.132h-.264v.264h.265zm4.944-.446l-.14-.348-.02.507-.02.508.159-.16.16-.16-.14-.347zm6.637.05l.33-.53h-1.062v1.058h.401zm-12.903-.662v-.133h-.265v.265h.265zm-.265-.53v-.132h-.264v.265h.264zm13.494-.296v-.43l-.397.33-.397.33v.199h.794zm14.817.032v-.132h-.265v.264h.265zm-25.136-.265v-.132h-.264v.265h.264zm0-.778v-.116l-.305-.19-.306-.188.189.306.189.305h.233zm-4.762-.28v-.132h-.265v.264h.265zm39.334-1.367l-.176-.176v.705l.176-.176.177-.177zm-46.214.044v-.132h-.264v.264h.264zm39.159 0v-.132h-.265v.264h.265zm-36.513-.264v-.133h-.264v.265h.264zm.794-.133v-.264h-.233l-.164.264-.163.265h.56zm.53-.397v-.132h-.265v.265h.264zm6.085 0v-.132h-.265v.265h.265zm-10.055-1.852v-.132h-.264v.265h.264zm.53-1.587v-.132h-.265v.264h.265zm34.307-.309l-.176-.176-.176.176-.177.177h.706zm-32.984-1.543v-.133h-.265v.265h.265zm-3.97-.265v-.132h-.264v.264h.265zm2.117-.529v-.132h-.264v.264h.264zm30.428 0v-.132h-.265v.264h.265zm-28.84-.249v-.117l-.265-.163-.264-.164v.56h.529zm26.987-.016v-.132h-.264v.265h.264zm19.628-.454l-.313-.313v.547l.176.176.177.177.137-.137.136-.137zm-25.978.19v-.132h-.264v.264h.264zm-24.87-.265v-.132h-.265v.265h.265zm23.812-.529v-.132h-.264v.264h.264zm25.136 0v-.132h-.265v.264h.265zm2.91-.132v-.265h-.233l-.164.265-.163.264h.56zm1.19-1.323l.164-.265h-.56v.53h.233zm-.925-.117v-.116l-.265-.164-.265-.163v.56h.53zm-48.551-.412l.163-.265h-.265l-.163.265-.164.264h.265zm47.14-.706l-.177-.176v.705l.176-.176.177-.176zm-44.362-.22v-.133h-.265v.265h.265zm42.598-.265v-.132h-.265v.264h.265zm1.058 0v-.132h-.265v.264h.265zm.53-.264v-.133h-.266v.265h.265zm.528-.794v-.132h-.264v.264h.264zm-28.575-.265v-.132h-.264v.265h.264zm26.635-.044l-.176-.176-.177.176-.176.177h.705zm1.323-.473v-.386l-.225.14-.225.138.153.247.152.246h.145zm-16.845-.012v-.132h-.265v.264h.265zm14.552 0v-.132h-.265v.264h.265zm2.822-.309l-.176-.176v.706l.176-.177.176-.176zm-20.108-.264l-.177-.177-.176.177-.176.176h.705zm18.52 0l-.176-.177-.176.177-.177.176h.706zm4.498 0l-.176-.177-.176.177-.177.176h.706zm-55.033-.53l-.176-.176-.177.177-.176.176h.706zm52.74.045v-.133h-.264v.265h.264zm-19.843-.265v-.132h-.265v.264h.265zm23.114-.529l.152-.397h-.512v.794h.208zm-21.527-.265v-.132h-.264v.265h.264zm17.595-.396l-.164-.265h-.529l.164.265.163.264h.529zm-19.182-.397v-.133h-.265v.265h.265zm16.668 0v-.133h-.264v.265h.264zm-50.535-.265v-.132h-.265v.264h.265zm11.377-.794v-.132h-.265v.265h.265zm41.275-.529v-.132h-.265v.264h.265zm-53.71-.264v-.133h-.265v.265h.265zm52.652-.265v-.132h-.265v.264h.265zm.793 0v-.132h-.264v.264h.264zm1.588 0v-.132h-.265v.264h.265zm-53.71-.53v-.131h-.265v.264h.265zm4.233 0v-.131h-.265v.264h.265zm49.742-.528v-.133h-.265v.265h.265zm-1.853-.265v-.132h-.264v.264h.264zm-52.652-.265v-.132h-.264v.265h.264zm53.182 0v-.132h-.265v.265h.265zm-54.4-1.146l.137-.22h-.771v.44h.498zm56.78.088v-.132h-.264v.264h.265zm.795 0v-.132h-.265v.264h.265zm-22.225-.264v-.133h-.265v.265h.265zm-35.278-1.103l-.177-.176-.176.176-.176.177h.705zm58.826.044v-.132h-.265v.265h.265zm.793 0v-.132h-.264v.265h.264zm-59.796-1.323v-.132h-.264v.265h.264zm60.502-.573l-.177-.176v.705l.177-.176.176-.177zm.882.309v-.133h-.265v.265h.265zm-3.704-.53v-.132h-.265v.265h.265zm2.116-.264v-.132h-.264v.264h.264zm-61.383-.265v-.132h-.265v.265h.265zM42.069 104.641l-.108-.347-.18-11.112-.18-11.113.065-3.44.065-3.44.027-10.847.026-10.848.99-.019.988-.019.18-.18.18-.179h1l-.153.25-.154.248.932-.151.932-.151v.663l.36-.299.36-.298 2.9.023 2.9.022.265.178.265.177.022 2.697.022 2.697-.438.117-.438.116.529.035.53.034-.398.257-.397.256.331.004.33.004v.56l-.33-.198-.33-.199.387.477.387.477.01 11.744.01 11.745h-.416l.261.487.26.487-.001.506-.002.505.009 8.857.009 8.856-.264.264-.264.263-5.685.09-5.685.09-.108-.346zm9.902-17.016v-.132h-.265v.265h.265zm-7.408-2.116v-.133h-.265v.265h.265zm8.73-3.175V82.2h-.264v.265h.265zm-.264-.53v-.132h-.264v.265h.264zm-.529-1.058v-.132h-.265v.264h.265zm-8.996-.794v-.132h-.264v.265h.264zm2.117-4.233v-.132h-.265v.264h.265zm2.028-.573l-.176-.177-.176.177-.177.176h.706zm4.322-.75v-.132h-.265v.264h.265zm-8.027-5.225l-.133-.331v1.323l.133-.33.133-.332zm.619.463V69.5h-.265v.265h.265zm-1.323-.265v-.132h-.265v.264h.265zm2.38-1.587v-.133h-.264v.265h.265zm-2.452-.293l-.16-.16-.347.14-.347.139.507.02.507.021-.16-.16zm2.717-.237v-.132h-.264v.265h.264zm-.882-.308l-.176-.177-.176.177-.177.176h.706zm-2.116-.53l-.177-.176-.176.177-.176.176h.705zm5.38.045v-.133h-.265v.265h.265zm-2.999-.574l-.176-.176-.177.176-.176.177h.705zm.353-.75v-.132h-.265v.265h.265zm-.397-.396l.163-.265h-.56v.529h.233zm7.573-.443l-.28-.483-.009.177-.008.176.165.43.165.43.124-.124.124-.123-.281-.483zm-3.737-.266v-.387l-.396.397-.397.397v.285l.397-.152.396-.152zm.794.577v-.133h-.264v.265h.264zm-6.614-.397v-.265l-.463.004-.463.004.396.257.397.256.066.004.066.004v-.264zm1.058-.133v-.132h-.265v.265h.265zm1.058-.529v-.132h-.264v.265h.264zm7.551-.596l-.074-.462.235-.298.236-.297-.733.005-.732.005.33.116.331.116v.485h-.886l.509.495.51.495.174-.1.175-.099-.075-.462zm-8.08.332v-.133h-.264v.265h.264zm5.556 0v-.133h-.264v.265h.264zm-1.675-.574l-.177-.176-.176.176-.177.177h.706zm1.146.045v-.133h-.264v.265h.264zm1.552-1.05l-.12-.12-.583.153-.584.152v.499l.266-.165.267-.164.177.462.178.463.259-.581.259-.58zm-4.286-.053l-.176-.176v.705l.176-.176.177-.176zm-3.351.044v-.132h-.265v.265h.265zm2.646 0v-.132h-.265v.265h.265zm6.614-.397v-.264H52.5v.529h.529zm-.926-.264l.164-.265h-.56v.529h.233zm-4.596-.463l.363-.463-.397.295-.397.295-.397.147-.397.147.43.02.432.022.363-.463zm.676-.116l-.14-.347-.02.507-.02.507.159-.16.16-.16-.14-.347zm3.259.446v-.132h-.265v.265h.265zm1.455-.661l.163-.265h-.264l-.164.265-.163.265h.264zm-8.6-.132v-.133h-.264v.265h.265zm.795 0v-.133h-.265v.265h.265zm5.82 0v-.133h-.264v.265h.265zm-1.659-.557l-.16-.16-.347.14-.347.138.507.021.507.02zm1.395.028v-.133h-.265v.265h.265zm1.82-.417l-.34-.21-.21.13-.212.131v.448l.552-.144.551-.144zm-5.911-.229l-.134-.217-.514-.134-.513-.134.12.311.119.311.528.04.528.04zm4.241.013l-.146-.236.65-.425.65-.426h.365l-.498.551-.5.551.725-.33.724-.33-.44-.485-.44-.486h-.8l.161.16.16.16-.503.542-.504.54.138.225.14.225h.264zm-1.738-.55v-.256l-.396.152-.397.153v.208h.793zm-6.35-.14v-.133h-.264v.265h.264zm7.144 0v-.133h-.264v.265h.264zm-3.44-.265v-.132h-.264v.264h.265zm2.117 0v-.132h-.264v.264h.264zm.794-.264v-.133h-.265v.265h.265zm-6.88-.265v-.132h-.264v.264h.265zm5.998-.309l-.176-.176v.705l.176-.176.176-.176zm1.676.309v-.132h-.265v.264h.265zm2.381-.232v-.1l-.463-.363-.463-.363.363.463.363.463h.2zm-7.144-.297V56.8h-.264v.265h.264zm4.145-.309l-.176-.176v.705l.176-.176.177-.177zm3.705.265l-.177-.177-.176.177-.177.176h.706zm-9.173-.22v-.133h-.264v.264h.264zm.706-.31l-.176-.176v.706l.176-.177.176-.176zm4.238-.137l-.14-.348-.02.508-.021.507.16-.16.16-.16-.14-.347zm2.376.402l-.176-.176-.176.176-.177.176h.706zm-4.41-.22v-.133h-.264v.265h.265zm-1.587-.265v-.132h-.264v.264h.264zm.794 0v-.132h-.265v.264h.265zm3.88-.044l-.176-.176-.176.176-.177.176h.706zm-5.203-.22v-.133h-.264v.265h.264zm2.646-.577v-.387l-.397.396-.397.397v.286l.397-.152.397-.152zm6.085.488v-.22l-.158-.158-.158-.159-.37.142-.369.142.146.237.147.237h.762zm-.529-.176v-.132h.265v.264h-.265zm-4.762 0v-.132h-.265v.264h.265zm2.028-.044l-.176-.177-.177.177-.176.176h.706zm.618.044v-.132h-.265v.264h.265zm-4.498-.693v-.264l-.265.163-.265.164v.529l.265-.164.265-.163zm3.175.428v-.132h-.265v.265h.265zm-4.763-.264v-.133h-.264v.265h.264zm2.117 0v-.133h-.265v.265h.265zm1.72-.131l-.53-.229-.198-.019-.198-.018v.414l.727.04.728.04zm-4.895-.106v-.104l-.41-.157-.411-.158.161.262.162.261h.498zm9.525-.012v-.117l-.306-.189-.305-.189.189.306.188.305h.234zm-2.646-.28v-.133h-.265v.265h.265zm-.617-.31l-.177-.176-.176.177-.177.176h.706zm-4.675-.22v-.132h-.264v.265h.264zm2.117 0v-.132h-.265v.265h.265zm1.058 0v-.132h-.264v.265h.264zm2.514-.132l.163-.265h-.825v.53h.498zm2.249-.16v-.105H52.5v.513l.397-.152.397-.153zm-4.234.028v-.133h-.264v.265h.264zm89.615 51.03l-.172-.173-10.789-.065-10.788-.064-.84-.024-.839-.023-.035-14.228-.036-14.228-.086-1.253-.086-1.254.3.18.3.18-.344-.424-.343-.424.158-2.339.157-2.34-.006-7.143-.006-7.144.21-.336.21-.336 6.464-.03 6.463-.03 9.591.053 9.591.054.038 1.768.038 1.768-.054 3.307-.055 3.307-.112.397-.113.397-6.799.07-6.798.069-.212-.334-.212-.334-.004.35-.004.35-2.712-.044-2.712-.044-.265.025-.264.025-.087 4.363-.087 4.363.815-.163.814-.163v.66l.408-.339.408-.338.32.322.32.322-.464-.177-.463-.176v.8l.53-.138.528-.138v-.732h.339l.351.463.352.463.008-.463.008-.463h.529v.529h1.588v.461l1.256-.255 1.257-.254.662-.095.661-.094 1.455.016 1.455.015 2.695-.027 2.695-.026.023 5.289.022 5.289-.997.004-.998.004-8.334.062-8.335.062-.023 4.696-.023 4.697.949.02.95.02.529.111.529.112 3.4.007 3.401.007-.33.397-.328.396.434-.166.434-.167v-.435l5.226.047 5.225.048.023 5.358.024 5.357-.156.025-.155.026-3.739.079-3.738.079-.514.163-.514.163-.173-.172zm-5.477-.76v-.132h-.265v.265h.265zm6.614-.793v-.132h-.264v.264h.264zm-5.027-.53v-.132h-.264v.265h.264zm-10.583-3.439v-.132h-.265v.264h.265zm13.494-2.646v-.132h-.265v.265h.265zm3.704 0v-.132h-.265v.265h.265zm-20.638-.264v-.133h-.264v.265h.264zm24.871 0v-.133h-.264v.265h.264zm-12.259-.838l-.176-.177v.706l.176-.176.177-.177zm4.851.309v-.133h-.265v.265h.265zm-.974-1.183l-.113-.125-.233.376-.233.377.16.26.161.26.186-.512.186-.512zm5.328.503l-.152-.247h-.481l.151.396.152.395.241-.149.242-.149zm-7.794.15v-.132h-.264v.265h.264zm12.039-.132l.163-.265h-.264l-.164.265-.163.265h.264zm-14.949-.132V94.9h-.265v.265h.265zm8.467 0V94.9h-.265v.265h.265zm4.498-.265v-.132h-.265v.264h.265zm-3.175-.529v-.132h-.265v.264h.265zm-6.615-.265v-.132h-.265v.265h.265zm5.82 0v-.132h-.264v.265h.265zm-16.933-2.38v-.133h-.264v.264h.264zm-5.027-.53v-.132h-.264v.264h.264zm.53-1.058v-.133h-.265v.265h.265zm2.645-.265v-.132h-.264v.264h.264zm-2.91-.53v-.131h-.265v.264h.265zm5.82 0v-.131h-.264v.264h.265zm.795 0v-.131h-.265v.264h.265zm-2.47-.837l-.176-.176v.705l.176-.176.177-.177zm-7.585-.75v-.132h-.264v.265h.264zm.706-.308l-.176-.177v.706l.176-.176.176-.177zm-.176-.485v-.133H116v.265h.265zm2.116-.53v-.132h-.264v.265h.264zm-1.146-.573l-.177-.176-.176.176-.176.177h.705zm4.321-.22v-.133h-.264v.265h.264zm4.763-1.059v-.132h-.265v.265h.265zm-8.467-1.058v-.132h-.265v.264h.265zm7.408 0v-.132h-.264v.264h.264zm2.646.028v-.104l-.41-.157-.411-.158.162.262.161.261h.498zm.975-.474l-.14-.348-.02.507-.021.508.16-.16.16-.16-.14-.347zm5.11.446v-.132h-.264v.264h.265zm-9.789-.264v-.133h-.265v.265h.265zm-2.646-5.292v-.132h-.264v.264h.264zm2.91-.265v-.132h-.264v.265h.265zm-.529-1.323v-.132h-.264v.265h.264zm9.26-.793v-.133h-.264v.265h.265zm8.203-.794v-.132h-.265v.264h.265zm-1.852-.265v-.132h-.265v.265h.265zm-6.35-.353v-.22h-.771l.137.22.136.221h.498zm2.117.089v-.133h-.265v.265h.265zm2.645 0v-.133h-.264v.265h.264zm-1.058-.265v-.132h-.265v.264h.265zm8.731 0v-.132h-.264v.264h.264zm-5.644-.309l-.177-.176-.176.176-.176.177h.705zm-17.639-.22v-.132h-.265v.264h.265zm13.494-10.319v-.132h-.265v.264h.265zm.529 0v-.132h-.265v.264h.265zm2.646-.264v-.133h-.265v.265h.265zm-4.498-.265v-.132h-.265v.264h.265zm2.778-.132l.163-.265h-.56v.529h.233zm2.425-.441l-.176-.177-.176.177-.177.176h.706zm-6.614-.53l-.177-.176v.706l.177-.177.176-.176zm7.232-2.072v-.132h-.265v.264h.265zm-8.206-1.537l.004-.214-.265.164-.265.163.004.447.004.448.257-.397.256-.397.004-.214zm10.587.743v-.132h-.265v.265h.265zm.794 0v-.132h-.265v.265h.265zm-9.26-.529v-.132h-.265v.264h.264zm11.112 0v-.132h-.265v.264h.265zm-8.026-.573l-.176-.177v.706l.176-.176.176-.177zm3.792-.22v-.133h-.264v.265h.264zm2.382 0v-.133h-.265v.265h.265zm.529-.794v-.133h-.265v.265h.265zm2.381-.53v-.132h-.265v.265h.265zm-15.346-.264v-.132h-.264v.264h.264zm14.023 0v-.132h-.264v.264h.264zm-2.117-.53v-.132h-.264v.265h.264zm.53-.528v-.133h-.265v.265h.265zm.793 0v-.133h-.264v.265h.264zm2.823-.574l-.177-.176-.176.176-.177.177h.706zm223.612 50.84l-.159-.16-5.326-.013-5.327-.013-.234-.437-.234-.437.09-3.172.088-3.172.184-5.953.184-5.953.043-15.478.042-15.479-.189-.41-.189-.412.204-.33.203-.329 5.877.114 5.876.115.185.186.186.186.018 7.32.019 7.319.048 2.604.048 2.605 2.844-.175 2.844-.174 3.969-.075 3.969-.075 2.472.159 2.472.159.156-.252.155-.252.055-.674.054-.675.042-8.927.042-8.927.468-.25.468-.25 5.512.11 5.512.11.117.116.116.117.01 1.674.01 1.675-.085 4.498-.084 4.498.035 6.217.036 6.218-.041 10.98-.042 10.98.124 2.086.123 2.085-5.578-.002-5.578-.002-.573-.306-.574-.307-.037-2.57-.037-2.571-.06-1.455-.061-1.455-.165-5.533-.165-5.532-.156-.156-.156-.157-3.749-.073-3.748-.074-5.457-.157-5.456-.158-.158 5.92-.158 5.92.058 4.498.058 4.497-.54.078-.54.077-.159-.159zm-2.597-2.377v-.132h-.265v.264h.265zm34.396-4.498v-.132h-.265v.264h.265zm-.265-1.587v-.133h-.264v.265h.264zm-1.587-2.646v-.132h-.265v.264h.265zm-29.105-2.381v-.133h-.264v.265h.264zm28.575-.265v-.132h-.264v.264h.264zm-2.38-1.323v-.132h-.265v.264h.264zm2.38-.53v-.131h-.264v.264h.264zm.53 0v-.131h-.265v.264h.265zm-28.84-.528v-.133h-.265v.265h.265zm25.4-1.059v-.132h-.265v.265h.265zm.706-.044l-.177-.176-.176.176-.177.177h.706zm-2.558-.485v-.132h-.265v.265h.265zm3.175-1.323v-.132h-.265v.265h.265zm-.53-.264v-.133h-.264v.265h.265zm-6.35-1.059v-.132h-.264v.265h.265zm4.499 0v-.132h-.265v.265h.265zm-4.85-1.367l-.177-.176v.706l.176-.177.176-.176zm-16.846.045v-.133h-.265v.265h.265zm21.167 0v-.133h-.265v.265h.265zm2.116-.265v-.132h-.264v.264h.264zm-5.291-.265v-.132h-.265v.265h.265zm-13.759-.264V82.2h-.264v.265h.264zm13.23-.265v-.132h-.265v.264h.264zm.529-.264v-.133h-.265v.265h.265zm1.322-.265v-.132h-.264v.264h.264zm-3.44-.53v-.131h-.264v.264h.265zm1.324 0v-.131h-.265v.264h.265zm-2.381-.528v-.133h-.265v.265h.265zm3.704 0v-.133h-.265v.265h.265zm-2.646-1.059v-.132h-.265v.265h.265zm.65-.415l-.152-.246h-.481l.151.395.152.396.241-.15.241-.149zm1.202-3.289v-.132h-.265v.264h.265zm.53-.529v-.132h-.265v.264h.264zm-27.077-4.807l-.176-.176v.706l.176-.177.177-.176zm5.645-.485v-.132h-.265v.265h.265zm-1.852-1.852v-.132h-.265v.265h.265zm-7.938-1.587v-.133h-.264v.265h.264zm.265-.53v-.132h-.265v.265h.265zm1.058 0v-.132h-.264v.265h.264zm.265-.529v-.132h-.265v.265h.265zm8.731 0v-.132h-.265v.265h.265zm-7.673-.661l-.397-.257-.214-.004-.214-.004.164.265.163.265.448-.004.447-.004zm.441-.706l-.176-.176-.177.176-.176.177h.706zm-1.896-.352l.163-.265h-.56v.529h.233zm1.19.132v-.132h-.264v.264h.265zm1.323-2.381v-.133h-.264v.265h.264zm4.234-1.588v-.132h-.265v.264h.265zm23.283-5.556v-.132h-.264v.264h.264zM.314 104.499l-.102-.205-.106-5.953L0 92.388l.017-9.525.017-9.525.037-9.538.037-9.537.347-.474.346-.474 4.088.075 4.087.076 11.708-.074 11.708-.074.042.353.043.352.024 5.161.023 5.161-6.876-.089-6.877-.088-.197-.31-.197-.31-.004.331-.004.33h-6.35l-.011.464-.011.463.03 3.836.029 3.837-.032 1.263-.032 1.264 2.726-.02 2.725-.022 5.895.025 5.894.025.24-.148.238-.147.025 5.414.025 5.414-6.688.058-6.687.059-1.985.022-1.984.022-.067.926-.067.926-.065 8.202-.066 8.202-4.63.052-4.63.052-1.237.153-1.237.153-.103-.205zm11.176-8.142v-.133h-.265v.265h.265zm0-.53v-.132h-.265v.265h.265zM1.7 93.712v-.132h-.265v.264H1.7zm9.79-6.086v-.132h-.265v.265h.265zm-.17-1.322l.153-.397h-.513v.793h.208zm-1.153-4.234v-.132h-.265v.264h.265zm2.91-4.762v-.133h-.265v.265h.265zm-2.646-.265v-.132h-.264v.264h.264zm.97-1.102l-.176-.177-.176.177-.177.176h.706zm.089-1.544v-.132h-.265v.265h.265zm-8.203-.529v-.132h-.264v.264h.264zM8.05 71.75v-.132h-.265v.265h.265zm-3.44-.264v-.132h-.264v.264h.264zm4.763-.265v-.132h-.265v.265h.265zm1.587-.529v-.132h-.264v.264h.264zM2.141 69.59l-.176-.177v.706l.176-.177.176-.176zm5.115.308v-.132h-.264v.265h.264zm3.969-.529v-.132h-.265v.264h.265zm-8.334-.397l.163-.264H2.79l-.164.264-.163.265h.264zm8.658-.898l.123-.642-.472.175-.473.175.018.264.018.265.127.33.126.328.205-.127.205-.126zm-.589-.028v-.132h.265v.265h-.265zm-6.879.53v-.133h-.264v.265h.264zm-1.246-.927l-.138-.529h-.203v1.354l.24-.148.24-.148zm2.305-.396v-.133h-.265v.265h.265zm6.614-.678v-.249h-.44v.771l.22-.136.22-.137zm-4.762.148v-.132h-.265v.265h.265zm2.822-.573l-.177-.176v.705l.177-.176.176-.177zm-5.204.044v-.132h-.264v.264h.264zm5.468-.573l-.176-.176-.176.176-.177.176h.706zm-3.88-.485v-.132h-.265v.264h.265zm-3.704-.265v-.132h-.265v.265h.265zm3.968-.264v-.133h-.264v.265h.264zm3.616-.574l-.176-.176-.176.176-.177.177h.706zm-8.643-.22v-.132h-.264v.264h.264zm5.821 0v-.132h-.264v.264h.264zm5.642-.556l-.142-.37h-.504l.164.264.163.265h-.825v.456l.643-.123.643-.123zm5.206.556v-.132h-.264v.264h.264zm-7.937-.53v-.132h-.265v.265h.265zm7.937-.264v-.132h-.264v.264h.264zm8.731 0v-.132h-.264v.264h.264zM.642 62.755v-.133H.377v.265h.265zm11.509-.133l.164-.264h-.265l-.164.264-.163.265h.265zM5.14 62.49v-.132h-.265v.264h.265zm3.175.016v-.117l-.306-.189-.305-.189.188.306.19.305h.233v-.116zm10.318-.28v-.133h-.264v.265h.264zm-16.227-.574l-.177-.176-.176.176-.177.177h.706zm2.469.044v-.132H4.61v.265h.265zm5.424-.132l.163-.265h-.529l-.163.265-.164.265h.529zm-8.952-.176l-.176-.177-.177.177-.176.176h.706zm9.878.044v-.133h-.265v.265h.265zm-4.498-.265v-.132h-.265v.264h.265zm2.117-.264v-.133h-.265v.265h.265zm23.019 0v-.133h-.265v.265h.265zm-14.023-.265v-.132h-.265v.264h.265zm-9.79-.265v-.132h-.265v.265h.265zm-2.646-.264v-.133H5.14v.265h.264zm7.938 0v-.133h-.265v.265h.265zm-10.848-.265v-.132h-.265v.264h.265zm3.704 0v-.132h-.265v.264h.265zm4.939-.309l-.177-.176v.706l.177-.177.176-.176zm-.441.045v-.133h-.265v.265h.265zm-4.498-.265v-.132h-.265v.264h.265zm2.117 0v-.132H8.05v.264h.265zm-3.44-.265v-.132H4.61v.265h.265zm9.525-.529v-.132h-.265v.265h.265zm1.587-1.323v-.132h-.264v.265h.264zm-13.493-.264V56.8h-.265v.265h.265zm-.618-1.632l-.176-.176v.705l.176-.176.177-.176zm2.999.309v-.132H4.61v.264h.265zm12.7.015v-.116l-.305-.189-.306-.189.189.306.189.305h.233zm-15.081-.28v-.132h-.265v.265h.265zm2.116-1.323v-.132h-.264v.265h.264zm63.066 50.458l-1.096-.082.107-14.605.107-14.604.02-10.67.019-10.672.123.123.123.123.979-.23.979-.23 2.62-.177 2.62-.176-.188.305-.189.305h.37l.294-.385.293-.385 5.821-.162 5.821-.162 1.72.253 1.72.252 1.586.44 1.586.44 1.684.98 1.684.978.516.297.516.297.58.51.579.511 1.413 1.574 1.414 1.573.607 1.191.607 1.19.55 1.783.549 1.782.175 2.32.175 2.322-.466 1.916-.466 1.916-.427.021-.427.021.324.131.324.131-.412.628-.41.628.087.212.087.213-.854.397-.854.396-.006.208-.006.208.529-.283.529-.284v.548h-.529v1.12l-.632-.12-.632-.121.044.288.044.288.193.31.194.31-1.183 1.233-1.182 1.234-.316-.195-.316-.195.168.273.169.272-1.054.73-1.053.73.003.163.003.163.918 1.587.92 1.588.965 1.852.966 1.852 1.519 2.516 1.52 2.517 2.28 3.437 2.282 3.436v.661l-.727.036-.728.036-5.876.063-5.876.063-.386-.43-.387-.43-1.116-2.116-1.115-2.116-1.135-2.008-1.135-2.007-1.879-3.747-1.878-3.748-1.78-.04-1.779-.04-1.256-.03-1.257-.028-.014 1.59-.014 1.59-.052 6.819-.052 6.818-4.315-.108-4.315-.109-.152-.152-.152-.152-.428.192-.428.192-1.096-.083zm.964-.451v-.133h-.265v.265h.265zm-.794-.794v-.132h-.265v.264h.265zm.926-.132l.163-.265h-.264l-.164.265-.163.264h.264zm6.482-.133v-.132h-.264v.265h.264zm-3.704-.264v-.133h-.265v.265h.265zm1.323 0v-.133h-.265v.265h.265zm-3.792-.574l-.177-.176-.176.176-.177.177h.706zm4.057-.22v-.132h-.265v.264h.265zm3.542-.794l.178-.794-.269.397-.268.397-.004.507-.004.507.095-.11.095-.11.177-.794zm.426.794v-.132h-.264v.264h.264zm-5.291-.53v-.132h-.265v.265h.265zm.529-.264v-.132h-.265v.264h.265zm1.587 0v-.132h-.264v.264h.264zm1.059-.132v-.265h-.234l-.163.265-.164.264h.56zm25.929.132v-.132h-.265v.264h.265zm-.794-.794v-.132h-.265v.265h.265zm-30.956-.264v-.132h-.265v.264h.265zm5.82 0v-.132h-.264v.264h.265zm-.264-1.588v-.132h-.265v.265h.265zm.176-.573l-.176-.176-.176.176-.177.176h.706zm23.372-3.66v-.132h-.265v.264h.265zm-7.408-.53v-.131H90.6v.264h.265zm2.38-.528v-.133h-.264v.265h.265zm6.086 0v-.133h-.264v.265h.264zm0-.53v-.132h-.264v.265h.264zm-9.26-.264v-.132h-.265v.264h.265zm0-1.058v-.133h-.265v.265h.265zm3.44-.265v-.132h-.265v.264h.264zM75.782 90.8v-.132h-.264v.265h.264zm14.993-.044l-.176-.176-.176.176-.177.177h.706zm-15.522-1.014v-.132h-.264v.264h.264zm18.256-.53v-.131h-.264v.264h.264zm0-1.322v-.132h-.264v.264h.264zm-18.256-1.588v-.132h-.264v.265h.264zm3.969-.264v-.132h-.265v.264h.265zM71.55 84.98v-.133h-.265v.265h.265zm25.665-2.646V82.2h-.265v.265h.265zm-14.288-.265v-.132h-.264v.264h.264zm15.706-1.058l-.152-.397h-.208v.794h.512zm-17.558 0v-.132h-.265v.264h.265zm16.404 0v-.132h-.264v.264h.264zm.794-1.588v-.132h-.265v.265h.265zm-19.315-.264v-.133h-.264v.265h.264zm-7.408-.265v-.132h-.265v.264h.265zm1.852-.264v-.133h-.264v.265h.264zm1.588-.265v-.132h-.265v.264h.265zm23.812 0v-.132h-.264v.264h.264zm-15.876-.532l3.04-.196 1.325-.608 1.325-.61.846-.879.846-.88.583-1.319.583-1.32.01-1.855.008-1.855-.357-.794-.357-.794.038-.182.037-.182-.506-.16-.505-.161-.262-.716-.262-.715-.02.335-.022.335-1.345-.682-1.346-.682-1.63-.122-1.632-.122-.463-.01-.463-.011-.008-.315-.008-.314-.381.504-.381.503-.168-.437-.168-.438-.567.021-.567.021.33.134.332.133v.573l-.175-.174-.174-.174-.393.327-.393.326.188-.593.188-.593h-.86l.146.236.146.236-1.123.568-1.122.568.727-.148.728-.148v.778l-.463.27-.463.27.444.007.445.008-.024 1.257-.023 1.257.025 3.836.026 3.837-.056.793-.055.794.221.312.222.313.446-.083.446-.084 3.04-.196zm-7.936-.262v-.132h-.265v.265h.265zm25.664 0v-.132h-.264v.265h.264zm-26.194-.529v-.132h-.264v.264h.264zm26.062-.661l.163-.265h-.56v.529h.233zm-24.606-.265l.163-.265h-.56v.53h.233zm-.733-1.483l-.16-.16-.348.14-.347.138.507.021.507.021-.16-.16zm27.852-.237v-.132h-.264v.265h.264zm-28.575-.794v-.132h-.264v.265h.264zm-2.116-1.058v-.132h-.265v.264h.265zm.794 0v-.132h-.265v.264h.265zm26.987-2.381v-.132h-.265v.264h.265zm3.175 0v-.132h-.265v.264h.265zm-29.898-.53v-.132h-.264v.265h.264zm1.323-1.058v-.132h-.265v.265h.265zm-2.91-.264v-.132h-.265v.264h.265zm-2.117-.53v-.132h-.265v.265h.265zm6.085 0v-.132h-.264v.265h.264zm1.588 0v-.132h-.265v.265h.265zm16.404-.529v-.132h-.265v.265h.265zm-21.167-.264v-.132h-.264v.264h.264zm3.44-.53v-.132h-.265v.265h.265zm-3.704-.528v-.133h-.265v.265h.265zm1.764-.045l-.177-.176-.176.176-.177.177h.706zm.882.045v-.133h-.265v.265h.265zm.661-.133l.164-.264h-.265l-.164.264-.163.265h.265zm-5.953-.132v-.132h-.265v.264h.265zm22.754-.265v-.132h-.264v.265h.264zm-18.038-.75l.085-.44H73.9l.164.264.163.265h-.56v.573l.33-.11.331-.11zm16.362-.087l-.176-.177v.706l.176-.177.177-.176zm-15.345-.265l-.177-.176-.176.176-.177.176h.706zm1.41.044v-.132h-.264v.264h.265zm13.23 0v-.132h-.265v.264h.265zm-15.875-.53v-.131h-.265v.264h.265zm3.836-.131l.164-.265h-.265l-.163.265-.164.264h.265zm-2.249-.265v-.265h-.233l-.164.265-.163.265h.56zm12.436-.397v-.132h-.265v.264h.265zm1.587 0v-.132h-.264v.264h.264zm-4.233-.529v-.132h-.265v.264h.265zm-5.82-.265v-.132h-.265v.265h.264zm2.645 0v-.132h-.265v.265h.265zm1.058 0v-.132h-.264v.265h.264zm-2.116-.264v-.132h-.265v.264h.265zm2.38-.53V61.3h-.264v.265h.265zm-6.614-.528v-.133h-.264v.265h.264zm1.059-1.059v-.132H77.9v.264h.265zm.529-.513v-.117l-.265-.164-.264-.163v.56h.529zm-9.878-2.97l-.176-.177v.706l.176-.177.176-.176zm10.407.308v-.132h-.265v.264h.265zm3.44-1.058v-.132h-.265v.264h.265zM69.08 54.508l-.177-.176-.176.176-.177.177h.706zm4.718-.088l.163-.264h-.264l-.164.264-.163.265h.264zm2.69-.176l-.176-.177-.177.177-.176.176h.705zm-.53-.794l-.176-.176v.705l.177-.176.176-.177zm145.08 50.864v-.357l1.16-2.477 1.16-2.477.53-1.191.53-1.19 1.103-2.755 1.104-2.755.904-1.743.904-1.744.767-1.587.766-1.588.593-1.19.594-1.19.338-.795.339-.793.336-.926.337-.926.319-.397.32-.397.878-1.918.878-1.919h.428v-.562l1.389-2.827 1.388-2.828.034-.199.033-.198.054-.066.053-.066.087-.45.086-.449 1.64-3.255 1.64-3.255.304-.264.303-.265.07-.661.068-.662.912-1.852.912-1.852.264-.713.264-.712.81.232.811.233.122-.05.121-.048 1.172 2.393 1.172 2.394.283 1.046.282 1.046.383.544.382.544 1.51 3.557 1.51 3.557.465.661.466.662.39.926.39.926.596 1.323.595 1.323 1.66 3.44 1.66 3.439 1.483 3.06 1.482 3.061.167.836.168.836.365.303.364.303v.435l1.693 3.52 1.692 3.52.171.576.172.576.637 1.144.638 1.144.456.926.456.926.482.703.483.702v.844l-.331.016-.33.016-5.989.019-5.988.02-.296-.184-.296-.182v-.807l-.824-1.877-.824-1.878-.061-.283-.061-.284-.27-.661-.268-.661-.342-.96-.343-.96-1.612-.158-1.612-.158-4.101-.036-4.101-.036-2.987-.043-2.987-.043-1.69 3.482-1.69 3.481-.326 1.089-.326 1.088-.818.013-.818.012-5.093.11-5.093.11v-.357zm11.642-7.957v-.133h-.264v.265h.264zm1.588 0v-.133h-.265v.265h.265zm.705-1.897l-.176-.176v.706l.176-.177.177-.176zm-.529 0l-.176-.176-.177.176-.176.177h.706zm-.97-.485v-.132h-.265v.265h.265zm2.646-.793v-.133h-.265v.265h.265zm1.587-.53v-.132h-.264v.265h.264zm-4.498-.529v-.132h-.264v.265h.264zm-1.323-.264v-.133h-.264v.265h.264zm5.292 0v-.133h-.264v.265h.264zm4.233 0v-.133h-.264v.265h.264zm2.117 0v-.133h-.264v.265h.264zm-8.467-.397v-.265h-.233l-.163.265-.164.264h.56zm-2.645-.117v-.116l-.265-.164-.265-.164v.56h.53zm7.143-.015v-.133h-.264v.265h.264zm-3.968-.794v-.132h-.265v.264h.265zm1.058 0v-.132h-.265v.264h.265zm-3.175-.794v-.132h-.265v.264h.265zm.441-1.102l-.176-.177-.177.177-.176.176h.705l-.176-.176zm1.94.044v-.133h-.264v.265h.264zm2.117-.53v-.132h-.265v.265h.265zm2.117-.529v-.132h-.265v.265h.265zm-4.587-.573l-.176-.176v.705l.176-.176.177-.176zm6.174.309v-.132h-.265v.264h.265zm1.852-.53V86.7h-.264v.265h.264zm-9.878-.308l-.176-.176-.176.176-.177.176h.706zm6.086-.265l-.177-.176v.706l.177-.177.176-.176zm-7.144-.529l-.176-.176v.705l.176-.176.176-.176zm11.2.309v-.132h-.264v.264h.265zm5.942-.894l-.176-.429-.22-.732-.22-.733-.702-1.436-.703-1.437.197-.32.198-.319-.243.15-.242.15-1.02-2.91-1.021-2.91-1.12 2.074-1.121 2.073-.594 1.852-.594 1.852-.636 1.633-.635 1.632v.286l4.514-.024 4.513-.023zm-18.73-.208l-.176-.177v.706l.177-.177.176-.176zm4.851.308v-.132h-.264v.264h.264zm-2.381-.529v-.132h-.265v.264h.265zm3.616-.044l-.176-.176-.177.176-.176.176h.705zm-.176-.485v-.132h-.265v.264h.265zm1.763-.838l-.176-.176v.705l.176-.176.177-.177zm13.847.309v-.133h-.265v.265h.265zm-17.463-.265v-.132h-.264v.264h.264zm-1.058-.264v-.133h-.264v.265h.264zm.97-.31l-.176-.176-.176.177-.177.176h.706zm4.763-.264l-.177-.176v.705l.177-.176.176-.176zm-5.733.044v-.132h-.264v.265h.264zm15.787-.308l-.176-.177-.177.177-.176.176h.705zm-11.818-.22v-.133h-.265v.264h.265zm-5.665-1.124l-.156-.156-.165.165-.165.165.206.475.206.474.115-.484.114-.483zm1.343.55l-.176-.176v.705l.176-.176.177-.177zm6.439.309v-.133h-.265v.265h.265zm-5.557-.53v-.132h-.264v.265h.264zm2.117 0v-.132h-.265v.265h.265zm.53-.264v-.132h-.265v.264h.264zm4.409-.309l-.177-.176-.176.176-.176.177h.705zm-3.352-.205v-.116l-.264-.164-.265-.163v.56h.529zm2.117-.015v-.133h-.264v.265h.264zm12.436-.265v-.132h-.265v.264h.265zm-16.405-.264v-.133h-.264v.265h.264zm3.44 0v-.133h-.265v.265h.265zm-5.556-.265v-.132h-.265v.264h.265zm18.256 0v-.132h-.265v.264h.265zm-15.346-.53v-.131h-.264v.264h.264zm16.052-.308l-.177-.176-.176.176-.177.176h.706zm-13.935-.22v-.133h-.265v.265h.265zm-1.588-.265v-.132h-.264v.264h.264zm2.382 0v-.132h-.265v.264h.265zm8.643-.309l-.177-.176v.706l.177-.177.176-.176zm-14.464.044v-.132h-.265v.265h.265zm8.731 0v-.132h-.265v.265H243zm-8.168-.837l.363-.44-.662.344-.661.344-.11.096-.11.097h.817zm19.942.176l.163-.265h-.529l-.163.265-.164.265h.529zm-5.424-.132v-.133h-.265v.265h.265zm4.233 0v-.133h-.264v.265h.264zm-10.318-.53v-.132H243v.265h.265zm.529-.793v-.133h-.265v.265h.265zm7.937-.265v-.132h-.264v.264h.264zm1.588-.264v-.133h-.265v.265h.265zm-2.507-1.14l-.148-.148-.326.329-.327.329.475-.181.474-.18zm-14.691.081v-.132h-.265v.265h.265zm.89-1.058l.152-.397h-.721l-.152.397-.153.397h.721zm16.572.265v-.133h-.264v.265h.264zm-7.937-.265v-.132h-.265v.264h.265zm5.291 0v-.132h-.264v.264h.264zm4.498 0v-.132h-.264v.264h.264zm-12.964-1.852v-.132h-.265v.264h.265zm2.91 0v-.132h-.264v.264h.264zm3.175-.265v-.132h-.264v.265h.264zm-3.704-.793v-.133h-.265v.265h.265zm4.763-.265v-.132h-.265v.264h.265zm-10.055-.249v-.117l-.305-.188-.306-.19.19.306.188.306h.233zm3.087-.06l-.176-.176-.177.176-.176.177h.706zm-4.674-1.014v-.132h-.265v.264h.265zm1.587-.132v-.265h-.233l-.163.265-.164.264h.56zm10.32-.133v-.132h-.265v.265h.264zm-10.584-.529v-.132h-.265v.265h.265zm0-.529v-.132h-.265v.264h.265zm3.44-.529v-.132h-.265v.264h.264zm4.762-.53v-.131h-.265v.264h.265zm-6.88-1.587v-.132h-.264v.265h.265zm-.528-.264v-.133h-.265v.265h.265zm1.058-1.588v-.132h-.265v.265h.265zm37.637 41.455l-.595-.084-.032-.974-.031-.974.027-.186.028-.187.149-8.677.15-8.677.053-9.966.053-9.966-.22-.22-.22-.22-7.189-.062-7.188-.061-.494-.12-.494-.121.175-5.11.176-5.108.197-.198.198-.197 15.599-.013 15.6-.012 4.021.015 4.022.015.212-.036.21-.036 1.254.032 1.252.031-.105 5.225-.106 5.226-.023.267-.022.268-1.39.035-1.388.035-6.108.04-6.108.04-.007 19.84-.007 19.839-.143.143-.143.143-5.384.048-5.384.048-.595-.085zm.992-31.665v-.132h-.265v.264h.265zm-.53-.265v-.132h-.264v.265h.265zm0-6.879v-.132h-.264v.264h.265zm12.172-1.587v-.133h-.265v.265h.265zm-20.638-.794v-.132h-.264v.264h.264zm8.467-1.059v-.132h-.265v.265h.265zm-7.673-2.116v-.132h-.265v.264h.265zm8.467-.53v-.132h-.265v.265h.265zm-3.44-1.058v-.132h-.265v.265h.265zm-1.058-2.646v-.132h-.265v.265h.265zm-1.063-.727l-.004-.595-.256.396-.257.397-.004.199-.004.198h.53l-.004-.595zm3.709.198v-.132h-.265v.265h.265zm20.637 0v-.132h-.265v.265h.265zm-.794-.529v-.132h-.264v.264h.264zm-25.135-.794v-.132h-.265v.265h.265zM100.39 79.953v-.133h.264v.265h-.264zm27.9-34.396l-.078-.265-.263-1.323-.263-1.323-.433-2.116-.433-2.117-.242-.926-.242-.926-.27-1.391-.272-1.392-.172-2.142-.172-2.143.006-.567.006-.567.032-.302.032-.303 2.712-.21 2.712-.209.263.07.263.071 2.912-.529 2.912-.528 1.984-.296 1.985-.295 2.91-.813 2.91-.812 3.855-1.157 3.855-1.156 1.966-.9 1.966-.902 1.72-.79 1.72-.789.661-.203.662-.203 1.507-.756 1.508-.756.477.154.476.154-.327-.236-.327-.237 2.709-1.42 2.708-1.42.132-.174.132-.174.926-.51.926-.509.627-.46.626-.459.234.145.233.144v-.56h.572l1.395-.926 1.395-.927h.332l1.4-.86 1.401-.86.523-.332.523-.332.385-.18.386-.18.643-.546.642-.546 1.089-.989 1.088-.988 1.571-1.128 1.571-1.128.582-.554.582-.553 1.551 1.05 1.552 1.049.926.86.926.86 3.571 2.38 3.572 2.379 1.191.602 1.19.603 2.25 1.51 2.249 1.51 3.44 1.731 3.439 1.732 1.852.9 1.852.9 1.323.697 1.323.698 1.455.656 1.455.657 1.809.55 1.809.55.837.359.837.36 1.323.563 1.323.564 1.984.512 1.984.512 1.72.538 1.72.537 2.249.399 2.249.399 3.307.41 3.307.41 2.489.127 2.488.127.053.07.053.069-.33 2.513-.33 2.514-.13.793-.13.794-.446 2.778-.445 2.778-.356 1.588-.355 1.587-.315 1.392-.315 1.392-6.701-.072-6.7-.072-.16-.16-.161-.16.44-1.292.441-1.292.362-1.72.362-1.72V39.4l-1.257-.177-1.257-.177-2.778-.518-2.778-.518-1.455-.427-1.455-.426-2.778-.93-2.778-.929-1.456-.724-1.455-.725-2.646-.98-2.646-.98-3.968-1.966-3.97-1.966-2.38-1.27-2.382-1.27-1.455-.794-1.455-.793-2.183-1.264-2.183-1.264v-.571l-.16.16-.162.162-1.36-.936-1.36-.935-.132-.192-.133-.192-1.51-1.106-1.51-1.106h-.291l-2.14 1.474-2.14 1.474-.123-.123-.123-.123-.634.633-.633.634H185.233l.172.172.172.172-1.375.886-1.376.886h-.557l-.954.649-.955.648-2.744 1.507-2.745 1.507-1.72.937-1.72.936-1.448.767-1.448.767-.1-.301-.1-.301-.304.37-.304.37-2.381.997-2.382.998-1.18.53-1.179.53-1.466.506-1.466.505-2.25.68-2.248.68-.48.25-.48.252-.512-.163-.513-.163v.459l-.86.3-.86.3-3.259.838-3.259.837-.511-.134-.512-.133.135.218.135.218-.733.161-.734.162-.287.918-.288.918.325-.27.326-.27.127.667.128.668h-.928l-.164.426-.164.426.4-.153.4-.153v.747l.588.412.588.411h-.943l.164.265.163.265h-.622l.127.485.127.485-.427.082-.426.082-5.789.029-5.788.028zm10.2 0v-.133h-.265v.265h.265zm-1.323-.53v-.132h-.265v.265h.265zm2.645 0v-.132h-.264v.265h.264zm-.529-.264v-.132h-.264v.264h.264zm-3.44-.265v-.132h-.264v.265h.265zm.442-.308l-.177-.177v.706l.177-.177.176-.176zm2.734.044v-.132h-.265v.264h.265zm1.587-.514v-.116l-.264-.164-.265-.163v.56h.529zm-2.116-1.338v-.133h-.265v.265h.265zm-.53-1.852v-.133h-.264v.265h.264zm2.293-.838l-.176-.177v.706l.176-.176.177-.177zm-3.748-.088l-.163-.265h.648l-.159-.159-.158-.159-.287.178-.286.177.152.246.152.246h.265zm1.985.132v-.132h-.265v.264h.265zm-.794-.53v-.132h-.265v.265h.265zm.529 0v-.132h-.265v.265h.265zm1.587-.264v-.132h-.264v.264h.264zm-4.762-.264v-.133h-.265v.265h.265zm1.056-.933l-.395-.25-.198-.004-.198-.004.066.33.066.331.262.188.263.187.264-.264.265-.265zm3.618.095l-.176-.177v.706l.176-.176.177-.177zm-2.028-.22v-.133h-.265v.265h.265zm5.291-.25v-.116l-.264-.164-.265-.163v.56h.529zm-7.76-.324l-.177-.176-.176.176-.177.176h.706zm4.982-.088l.164-.265h-.56v.529h.233zm4.895.148v-.117l-.305-.189-.306-.189.189.306.189.305h.233zm2.117-.016v-.132h-.265v.264h.265zm-11.113-.249v-.117l-.264-.163-.265-.164v.56h.529zm3.44-.015v-.133h-.265v.265h.265zm4.498.015v-.117l-.265-.163-.264-.164v.56h.529zm5.291-.015v-.133h-.264v.265h.264zm-14.022-.265v-.132h-.265v.264h.265zm2.293-.044l-.177-.177-.176.177-.177.176h.706l-.176-.176zm9.117-.271l.364-.448-.309.185-.308.184-.134-.332-.134-.332-.02.595-.022.595h.2l.363-.447zm-9.823.05v-.132h-.265v.265h.265zm5.82 0v-.132h-.264v.265h.265zm2.363-.86l.33-.727-.2.199-.2.199-.485-.439-.484-.438v.384l.432.433.432.432-.3.1-.3.1v.485h.445zm-7.125.331v-.132h-.264v.265h.264zm5.821-.264v-.133h-.264v.265h.264zm-2.646-.926v-.265h-.233l-.163.265-.164.264h.56zm-6.085-.133v-.132h-.265v.265h.265zm2.117 0v-.132h-.265v.265h.265zm4.762 0v-.132h-.264v.265h.264zm3.44-.132v-.265h-.234l-.163.265-.164.265h.56zm-9.525-.132v-.133h-.265v.265h.265zm12.435 0v-.133h-.264v.265h.264zm-12.7-.794v-.132h-.264v.264h.264zm1.323 0v-.132h-.265v.264h.265zm1.852-.265v-.132h-.264v.265h.264zm3.175 0v-.132h-.264v.265h.264zm102.394-.264v-.132h-.265v.264h.265zm-84.402-.265v-.132h-.265v.264h.265zm-24.077-.264v-.133h-.265v.265h.265zm2.646 0v-.133h-.265v.265h.265zm1.322 0v-.133h-.264v.265h.264zm101.071 0v-.133h-.264v.265h.264zm-100.277-.397v-.265h-.56l.163.265.164.264h.233zm-6.35-.133v-.132h-.264v.265h.264zm4.675-.308l-.177-.177v.706l.177-.177.176-.176zm2.12-.403l-.138-.347-.021.507-.021.507.16-.16.16-.16-.14-.347zm84.222.182v-.132h-.265v.264h.265zm-85.196-.264v-.133h-.265v.265h.265zm11.906 0v-.133h-.264v.265h.264zm-12.435-.53v-.132h-.265v.265h.265zm28.222-.573l-.176-.176v.705l.176-.176.177-.176zm61.472.309v-.132h-.265v.264h.265zm-6.88-.794v-.132h-.264v.264h.264zm7.409 0v-.132h-.265v.264h.265zm-100.806-.53v-.131h-.265v.264h.265zm19.755-.837l-.176-.176v.705l.176-.176.177-.177zm-18.785 0l-.177-.176-.176.176-.176.176h.705zm26.546-.22v-.133h-.264v.265h.264zm73.554-.794v-.132h-.264v.264h.264zm-22.225-1.852v-.133h-.264v.265h.264zm-61.118-.265v-.132h-.265v.264h.265zm31.22 0v-.132h-.264v.264h.264zm-24.341-1.323v-.132h-.265v.265h.265zm3.351-.308l-.176-.177-.177.177-.176.176h.706zm5.248-.353l.163-.265h-.264l-.164.265-.163.264h.264zm-7.012-.397v-.132h-.264v.264h.264zm73.025 0v-.132h-.264v.264h.264zm-60.325-1.588v-.132h-.264v.265h.264zm-4.85-1.102l-.177-.176-.176.176-.177.176h.706zm38.982.044v-.132h-.265v.264h.265zm-32.544-.794v-.132h-.265v.265h.265zm-5.292-.529v-.132h-.264v.264h.264zm4.763 0v-.132h-.265v.264h.265zm4.498 0v-.132h-.265v.264h.265zm1.852 0v-.132h-.265v.264h.265zm27.957-.309l-.176-.176v.706l.176-.177.177-.176zm-33.778-.485v-.132h-.265v.265h.265zm7.144-.264v-.132h-.265v.264h.265zm-6.615-.53v-.132h-.265v.265h.265zm3.704-.529v-.132h-.264v.265h.264zm-3.175-.529v-.132h-.264v.265h.264zm1.058-.264v-.133h-.264v.265h.264zm-1.192-.394l.162-.262-.411.158-.41.157v.208h.498zm.663-.4v-.132h-.264v.264h.264zm13.23 0v-.132h-.265v.264h.264zm-10.584-.794v-.132h-.264v.265h.264zm30.427 0v-.132h-.264v.265h.264zm-3.836-.397l.163-.264h-.264l-.164.264-.163.265h.264zm-15.181-.972l-.281-.483-.008.177-.008.177.165.43.165.43.124-.124.123-.124-.28-.483zm-11.013.179l.164-.265h-.265l-.164.265-.163.264h.265zm1.19.132v-.132h-.264v.264h.265zm6.615-.265v-.132h-.264v.265h.264zm-6.614-.529v-.132h-.265v.264h.265zm6.879-.412v-.25h-.529v.826l.264-.164.265-.163zm-5.38-.426l-.176-.176-.177.176-.176.177h.705zm22.975-.088l.163-.264h-.56v.529h.233zm1.72.132v-.132h-.265v.265h.264zm-23.901-.308l-.177-.177-.176.177-.176.176h.705zm4.498 0l-.177-.177-.176.177-.177.176h.706zm1.41-.22v-.133h-.264v.265h.265zm1.324 0v-.133h-.265v.265h.265zm10.318-.265v-.133h-.264v.265h.264zm-2.91-.53V9.97h-.265v.265h.265zm-10.672-.308l-.176-.177-.176.177-.177.176h.706zm15.964.044v-.132h-.265v.264h.265zm-1.588-.53v-.132h-.264v.265h.264zm-10.319-.528v-.133h-.264v.265h.264zm-1.058-.397v-.265h-.233l-.164.265-.163.264h.56zm1.323-.133v-.132h-.265v.265h.265zm2.822-1.102l-.176-.176v.705l.176-.176.177-.177zm-4.498 0l-.176-.176-.176.176-.177.176h.706zm10.407-.485V6.53h-.264v.264h.264zm-.353-1.103l-.176-.176-.176.176-.177.177h.706zm-7.32-.22v-.132h-.264v.264h.264zm5.557-.53V4.68h-.265v.264h.265z" fill="orange"/></svg>