<svg clip-rule="evenodd" fill-rule="evenodd" stroke-linejoin="round" stroke-miterlimit="2" width="360" height="193.491" xmlns="http://www.w3.org/2000/svg"><g fill="#964707" fill-rule="nonzero"><path d="M189.805 98.166c-.346-1.18-.633-2.205-.95-3.221a30.64 30.64 0 00-.68-1.94c-.231-.599-.229-1.147.317-1.556.704-.527.753-1.173.46-1.931-.108-.285-.125-.606-.238-.888-.395-.987-.48-1.91.307-2.782.346-.381.284-.883.039-1.303-.518-.887-.477-1.81-.34-2.781.136-.98.135-1.98.235-2.967.074-.72.18-1.439.331-2.147.357-1.686.74-3.368 1.128-5.048.39-1.68.773-3.363 1.203-5.031.254-.987.168-1.456-.44-1.66-.697-.236-1.259.037-1.613.898-.244.595-.477 1.233-.525 1.866-.112 1.489-.853 2.706-1.627 3.877-1.014 1.538-2.09 3.018-2.786 4.75-.588 1.463-1.47 2.763-2.488 3.987-.604.724-1.061 1.594-1.47 2.453-.648 1.362-1.278 2.717-2.508 3.673-.851.661-1.75 1.486-2.837 1.342-1.313-.174-2.367.073-3.452.78-.776.504-1.524.254-2.067-.597-.595-.935-1.052-1.956-1.626-2.906-1.64-2.711-2.67-5.679-3.733-8.639-.112-.31-.452-.686-.747-.752a.898.898 0 00-1.075.66c-.32 1.172-.846 2.318-.48 3.592.37 1.288.095 2.578-.036 3.87-.084.834-.08 1.68-.12 2.52a744.752 744.752 0 01-.178 3.325 2.956 2.956 0 01-.7 1.787c-.427.514-.48 1.147-.124 1.725.36.584.245 1.033-.13 1.573-.701 1.013-.63 1.309.162 2.359.221.293.474.667.476 1.005.009 1.224-.07 2.45-.143 3.672-.056.95-.633 1.637-1.277 2.25-.7.664-1.516.574-2.07-.225-.413-.598-.805-1.225-1.1-1.886-.157-.354-.11-.807-.117-1.217-.009-.458.083-.924.026-1.374-.051-.405-.164-.868-.716-.907-.595-.042-.815.397-.916.855a3.94 3.94 0 00-.066 1.255c.157 1.448-.53 2.38-1.972 2.466-.553.033-1.142-.096-1.676-.267-1.012-.325-1.36-.162-1.496.858-.089.661-.116 1.289.547 1.754.214.15.333.513.387.799.086.44-.017.91-.502 1.035-.5.13-.733-.263-.91-.682a60.337 60.337 0 00-1.07-2.409c-.314-.662-.658-1.3-.582-2.076.02-.216-.015-.515-.15-.655-.22-.227-.569-.52-.81-.477-.223.04-.56.506-.526.738.093.637-.075 1.194-.214 1.788-.067.29.062.699.238.962 1.026 1.531.649 3.665-.843 5.143-.598.593-.84.602-1.425-.023-.314-.334-.567-.726-.864-1.078-.98-1.16-.955-1.142-.202-2.42.384-.65.605-1.385 1.2-1.921.121-.11.05-.64-.107-.787-.137-.128-.524.006-.8.03-.028.003-.057.05-.079.082-.385.533-.787.969-1.516.5-.72-.464-1.083-1.255-.835-2.066.189-.621.435-1.23.7-1.824.293-.656.341-1.315.26-2.025-.056-.472.013-.973.105-1.446.16-.82.407-1.624.574-2.445.189-.937.33-1.883.49-2.827.027-.151.038-.307.074-.456.11-.456.025-.93-.404-1.07-.349-.114-.876-.063-1.183.133-1.602 1.027-2.358 3.375-1.663 5.189.382.994-.018 1.89-.162 2.822-.058.372-.225.734-.38 1.085-.873 1.957-1.294 4.012-1.308 6.146-.006 1.13-.512 1.988-1.3 2.718-.637.59-1.679.713-2.232.298-.71-.533-1.009-1.844-.484-2.568.647-.895 1.046-1.851 1.189-2.946.046-.353.275-.71.498-1.008.424-.561.492-1.106.09-1.692-.506-.738-.543-1.518-.458-2.409.135-1.403.202-2.823-.167-4.236-.156-.596-.045-1.28.032-1.914.138-1.137.327-2.269.523-3.398.124-.715.368-1.413.44-2.132.189-1.867.298-3.743.467-5.612.07-.761.215-1.516.32-2.274.057-.417.129-.836.146-1.256.089-2.107.157-4.213.243-6.32.01-.264.048-.539.133-.787.626-1.845.662-3.76.717-5.678.01-.413.108-.834.233-1.229.608-1.909 1.017-3.86 1.114-5.858.032-.675-.193-1.36-.27-2.044-.06-.53-.12-1.066-.096-1.597.054-1.187.18-2.37.235-3.557.05-1.051.658-1.77 1.349-2.453a.676.676 0 01.186-.131c.91-.434 2.923.075 3.384.968.494.959 1.276 1.383 2.253 1.6.98.219 1.38.026 1.825-.89.476-.979 1.206-1.372 2.302-1.236.762.094.975.414.834 1.17a9.35 9.35 0 00-.18 1.472c-.012.51.254.881.771 1.014.516.133 1.137-.113 1.37-.603.467-.98.563-1.977.037-2.987-.228-.436-.471-.894-.558-1.37-.267-1.471.376-2.567 1.643-3.25 1.167-.63 2.232-1.308 2.944-2.49.422-.702.789-.748 1.582-.45 1.077.404 2.138.855 3.21 1.278.87.343 1.383 1.089 1.948 1.757.626.742 1.279 1.414 2.164 1.86.758.38 1.132 1.043 1.365 1.886.545 1.957 1.248 3.87 1.818 5.82.417 1.423.72 2.881 1.085 4.321.085.332.205.656.333.976.44 1.102.89 2.2 1.335 3.3.057.14.07.338.175.418.283.214.603.51.913.518.24.005.592-.332.713-.598.2-.446.196-.983.384-1.437.599-1.45 1.193-2.907 1.887-4.311 1.532-3.096 3.1-6.174 4.705-9.231.766-1.458 1.625-2.867 2.487-4.271.507-.825.944-1.632 1.043-2.638.133-1.356 1.07-2.343 1.815-3.41.277-.397.54-.83.685-1.285.406-1.273.85-2.487 2.26-2.99.103-.037.185-.134.276-.204.964-.736 1.236-.703 1.946.23.606.798 1.221 1.031 2.085.588a3.282 3.282 0 012.11-.335c.686.109 1.276-.115 1.825-.534.971-.744 1.967-1.458 2.947-2.19.617-.462 1.076-.437 1.61.14.26.28.463.615.721.898.66.72 1.53.81 2.224.118.697-.693 1.345-1.147 2.428-.854.799.217 1.421-.257 1.617-1.116.236-1.038.442-2.11.452-3.17.014-1.31.632-2.18 1.627-2.863.683-.47 1.29-.344 1.793.333.548.74 1.071 1.498 1.597 2.254.108.157.232.332.256.512.253 1.923 1.044 3.775.633 5.79-.196.968-.118 1.988-.227 2.979-.152 1.37-.42 2.728-.536 4.098-.196 2.328-.144 4.678-.648 6.978-.041.185-.079.395-.033.572.23.898.071 1.71-.33 2.545-.15.312-.071.886.132 1.189.548.821.422 1.525.033 2.371-.274.595-.263 1.333-.328 2.012-.066.683-.074 1.372-.094 2.059-.01.3.024.603.023.903-.006 1.223-.008 2.447-.035 3.669-.008.381-.176.775-.119 1.14.3 1.928-.258 3.9.307 5.807.232.782.11 1.507-.205 2.236-.358.832-.452 1.612.408 2.263.51.387.512.956.139 1.44-.98 1.276-1.49 2.773-2.025 4.248-.197.546-.218 1.204-.146 1.79.139 1.134.44 2.248.6 3.38.107.753.283 1.323 1.176 1.444.258.034.628.384.662.628.039.278-.2.633-.403.888-.124.156-.4.22-.62.267-.796.174-1.26.647-1.477 1.436-.105.38-.36.72-.527 1.043-.712-.048-.803-.552-1.043-.928-.15-.238-.431-.612-.583-.58-.285.06-.628.314-.755.58-.495 1.032-.712 2.079.005 3.151.406.608.624 1.31.395 2.07-.126.417-.272.81-.784.88-.506.07-.748-.22-.974-.63-.413-.745-.911-.791-1.546-.228-.543.482-1.103.947-1.66 1.414-.481.405-.954.466-1.41-.05a1.74 1.74 0 00-.348-.3c-.629-.416-.903-.301-1.221.38-.372.796-.747 1.602-1.227 2.334-.75 1.145-1.684 1.453-2.996 1.149-.461-.107-.655-.41-.603-.839.122-.989-.225-1.681-1.1-2.2-.318-.19-.511-.656-.672-1.033-.576-1.352-1.572-1.826-2.936-1.346-.146.05-.285.118-.43.166-1.315.43-1.653.99-1.444 2.398.206 1.373.206 1.373-.187 2.91zm14.121-10.695c.008-.784-.477-1.292-1.277-1.347-.845-.057-1.137.195-1.215 1.139-.08.991-.139 1.985-.159 2.978-.006.286.1.61.25.856.298.488.653.94 1.003 1.394.497.645 1.177.705 1.8.177.73-.62.88-1.762.205-2.453-.698-.71-.875-1.495-.696-2.42.022-.11.06-.22.09-.324zM190.16 148.118c-.035 1.826-.187 3.615-.074 5.387.17 2.68.36 5.349.132 8.036-.08.945.031 1.908.047 2.863.011.65.024 1.3.011 1.95-.006.344-.098.686-.093 1.027.018 1.12-.017 2.207-.514 3.265-.42.893-.338 1.882-.14 2.836.284 1.37-.03 2.664-.46 3.943-.096.284-.275.554-.464.791-.659.83-1.552.792-2.036-.141a13.266 13.266 0 01-.983-2.447c-.376-1.325-.951-1.529-1.988-.604-.947.845-1.835.668-2.39-.472-.166-.345-.295-.717-.519-1.022-.348-.473-.91-.712-1.424-.492-.362.155-.742.609-.824.992-.133.62-.067 1.295-.015 1.94.047.58-.08 1.068-.486 1.473-.601.6-1.236.515-1.681-.217-.06-.098-.116-.2-.163-.306-.25-.562-.675-.84-1.287-.73-.6.109-.931.533-1.044 1.1-.106.522-.126 1.063-.215 1.591-.096.564-.154 1.15-.357 1.677-.441 1.148-1.403 1.722-2.612 1.663-1.319-.062-1.459 0-1.732 1.256-.325 1.485-1.337 2.468-2.355 3.46-.081.079-.194.125-.29.188-.359.237-.726.267-1.064-.017-.325-.275-.462-.639-.232-1.03.507-.858.496-1.717.16-2.636-.196-.533-.01-1.07.342-1.515.56-.707.646-1.413.214-2.246-.239-.458-.31-1.021-.38-1.547-.102-.794-.363-1.497-.983-2.02-.613-.515-.706-1.08-.446-1.845.89-2.618 1.362-5.34 1.782-8.065.162-1.057.16-2.14.267-3.207.182-1.825.468-3.646.569-5.475.117-2.131.478-4.235.272-6.409-.124-1.3-.49-2.752.312-4.036-.009-2.352 1.065-4.543.964-6.93-.043-1.042.36-2.102.56-3.154.028-.15.096-.307.078-.452-.238-1.815-.009-3.65-.238-5.467a5.917 5.917 0 01-.017-1.007c.024-.498.112-.995.104-1.492-.02-1.307-.068-2.609.382-3.871.084-.239.024-.531.024-.797-.002-.84.25-1.558.857-2.182.96-.986.928-1.186.224-2.389-.307-.523-.517-1.108-.729-1.682-.149-.405-.008-.818.37-.98.273-.119.64-.024.965-.01.067.004.148.061.194.117.968 1.182 2.365 1.964 3.107 3.36.559 1.05 1.241 1.199 2.256.537 1.108-.72 1.77-1.625 1.581-3.063-.134-1.019.297-1.327 1.281-1.142 1.25.235 1.388.16 1.89-1.039.329-.785.5-.932 1.397-.86.624.05 1.086-.095 1.555-.533.67-.627.999-.614 1.645.096.595.652 1.227.697 1.97.401.391-.155.786-.303 1.17-.476.773-.348 1.331-.06 1.781.576.11.156.249.3.33.47.346.725.949 1.11 1.706 1.232 1.554.251 2.598 1.255 3.55 2.379.42.496.72 1.09 1.114 1.612 1.9 2.507 3.815 5.006 5.73 7.504.162.213.366.394.556.584 1.12 1.122 1.862 2.425 1.979 4.041.037.511.159 1 .714 1.218 1.03.405 1.878-.207 1.614-1.287-.751-3.078-.541-6.201-.349-9.284.11-1.756.173-3.487.12-5.242-.023-.734.252-1.512.538-2.212.42-1.029.446-1.973-.04-2.991-.64-1.337-.352-2.335 1-2.943 1.357-.61 1.817-1.518 1.528-2.913-.046-.223-.055-.458-.046-.687.024-.661.262-1.209.924-1.459.68-.255 1.575-.028 1.988.537.294.4.488.871.76 1.287.594.905 1.157.957 1.963.208.113-.104.226-.21.327-.326.391-.448.804-.605 1.422-.37.856.327 1.215.155 1.74-.594.265-.378.492-.789.798-1.126.469-.514.893-.482 1.369.03.052.056.09.124.138.184.9 1.128.994 1.14 2.133.196.445-.368.939-.48 1.337-.03.812.915 1.59 1.865 2.318 2.847.179.243.165.67.15 1.006-.04.835.137 1.61.567 2.314.36.59.282 1.14.055 1.757-.316.86-.55 1.75-.782 2.637-.076.29-.118.63-.045.913.473 1.843.086 3.671-.098 5.493-.11 1.085.061 2.125.133 3.189.085 1.255.027 2.52.024 3.78 0 .189-.067.379-.059.567.066 1.57.158 3.137.212 4.708.09 2.609.172 5.217.223 7.827.021 1.108-.06 2.22-.07 3.329-.014 1.336.012 2.672-.007 4.006-.03 2.135-.085 4.27-.123 6.405-.013.808-.002 1.616-.01 2.422-.007.797-.001 1.593-.042 2.388a224.56 224.56 0 01-.282 4.475c-.035.494-.114.986-.19 1.477-.134.865-.326 1.725-.405 2.594-.049.532-.178.97-.593 1.312-.296.244-.58.503-.874.749-.789.657-1.251.591-1.705-.296-.19-.37-.247-.805-.408-1.192-.16-.384-.311-.802-.58-1.102-.48-.53-1.198-.482-1.565.117-.578.943-1.137 1.907-1.584 2.916-.65 1.467-2.049 1.978-3.351 1.04-.707-.509-1.35-1.136-1.924-1.795-.863-.992-1.231-1.09-2.302-.37-.62.417-.843.402-1.54-.12-1.646-1.23-2.976-2.77-4.253-4.357a14.663 14.663 0 00-2.638-2.535c-1.656-1.25-3.043-2.803-4.157-4.579a28.672 28.672 0 00-1.236-1.8c-1.115-1.512-2.256-3.005-3.37-4.518a127.707 127.707 0 01-2.547-3.558c-.497-.727-1.147-.81-2.113-.584zM359.988 29.756c-.168 1.133-.36 2.301-.51 3.476-.165 1.29-.253 2.59-.444 3.877a16.88 16.88 0 01-.59 2.572c-.301.956-.583 1.894-.62 2.912-.016.467-.255.937-.44 1.387a74.892 74.892 0 01-1.273 2.959c-.644 1.393-1.321 2.77-1.986 4.151-.032.069-.113.127-.12.194-.127 1.463-1.135 2.476-1.85 3.638-.119.195-.29.412-.288.618.01 1.22-.815 1.955-1.556 2.723-.717.743-1.506 1.416-2.242 2.141-1.833 1.808-3.64 3.64-5.49 5.43-.274.267-.72.484-1.09.493-.581.012-1.017.205-1.467.534-2.072 1.516-4.423 2.426-6.874 3.108-.181.051-.385.09-.566.059-1.916-.326-3.706.12-5.507.74a7.484 7.484 0 01-2.82.394c-1.787-.11-3.6-.2-5.288-.954-.444-.198-.963-.27-1.455-.306-1.288-.094-2.468-.49-3.605-1.083a17.395 17.395 0 00-2.21-.976c-1.443-.512-2.916-.932-4.354-1.456-.568-.208-1.075-.582-1.6-.896-.33-.198-.63-.443-.963-.634-1.667-.966-2.827-2.355-3.842-4-1.173-1.898-2.246-3.808-3.012-5.91-.364-.996-1.065-1.867-1.468-2.854-.357-.872-.523-1.824-.753-2.746-.083-.333-.1-.681-.158-1.02-.325-1.886-.596-3.783-1.001-5.652-.263-1.212-.065-2.369.116-3.537.176-1.126.067-2.115-.433-3.208-.614-1.338-.81-2.825.27-4.206.582-.745.941-1.667 1.389-2.516.518-.983 1.014-1.979 1.536-2.959.345-.649.682-1.292.663-2.055-.001-.077-.025-.174.011-.228.952-1.407 1.03-3.27 2.422-4.464.99-.848 1.864-1.833 2.786-2.76.782-.786 1.57-1.534 2.012-2.622.483-1.188 1.599-1.849 2.651-2.483 1.051-.633 1.837-1.451 2.448-2.525.408-.716.997-1.37 1.627-1.907 1.224-1.048 2.484-2.07 3.821-2.965 1.498-1.002 3.108-1.807 4.936-2.1.582-.094 1.122-.428 1.688-.633.282-.102.592-.262.867-.224.674.096 1.2-.149 1.711-.522.61-.443 1.23-.656 2.04-.486.695.147 1.498.172 2.17-.03 1.637-.49 3.177-.156 4.749.224.425.104.93.13 1.337.002 1.333-.418 2.564-.453 3.636.6.055.053.122.134.183.134 1.216.007 2.095.922 3.192 1.202 1.822.466 3.209 1.603 4.61 2.742 1.207.983 2.072 2.216 2.849 3.572.757 1.322 1.747 2.524 2.724 3.704 1.11 1.344 1.974 2.765 2.58 4.433.372 1.026.596 2.01.728 3.073.226 1.834 1.185 3.367 2.208 4.867.624.915 1.24 1.86 1.679 2.869.256.595.164 1.344.236 2.089zm-23.435 1.117c-.25-.932-.49-2.057-.874-3.13-.168-.466-.592-.869-.968-1.228-1.494-1.422-3.275-2.53-4.42-4.336-.704-1.112-2.32-1.356-3.354-.5a31.394 31.394 0 00-3.392 3.263c-1.722 1.933-2.662 4.386-4.11 6.509-.102.15-.141.359-.162.545-.15 1.319-.594 2.614-.212 3.975.12.428-.02.924.041 1.378.107.79.274 1.573.428 2.356.06.3.226.594.221.888-.017.992.452 1.775 1.024 2.504.495.633 1.075 1.2 1.568 1.833.343.441.68.92.878 1.436.175.457.45.753.874.804.48.057 1.03.085 1.456-.095.687-.292 1.199-.256 1.792.214.897.71 1.72.651 2.403-.241a14.71 14.71 0 001.588-2.647c1.01-2.14 1.946-4.315 2.903-6.48.54-1.223 1.14-2.43 1.572-3.693.344-1.003.472-2.082.744-3.355zm3.817-1.204c-.583.352-1.134.67-1.668 1.015-.118.076-.265.245-.255.36.075.844-.286 1.427-.916 1.976a.594.594 0 00.43 1.052c.773-.056 1.284.207 1.809.744.47.481 1.04.247 1.185-.417.072-.332.098-.695.047-1.03-.181-1.199-.405-2.393-.632-3.7zM332.202 147.441c-1.08.114-2.377.249-3.673.39-.234.026-.472.132-.698.105-1.343-.157-2.668-.16-3.98.25-.208.064-.474-.002-.701-.058-1.955-.483-3.906-.983-5.86-1.469-.538-.134-1.088-.215-1.62-.366-.64-.182-1.317-.322-1.886-.643-.875-.49-1.767-.687-2.736-.524-.713.12-1.327-.039-1.893-.477-.312-.243-.633-.494-.987-.659-2.238-1.04-3.7-2.913-5.196-4.76a26.955 26.955 0 00-1.886-2.132c-.58-.578-.926-1.249-1.232-1.997-.702-1.721-1.534-3.39-2.23-5.114-.886-2.192-1.949-4.33-2.322-6.7-.012-.078-.008-.172-.05-.23-1.15-1.628-.617-3.421-.516-5.17.008-.159.038-.319.023-.476-.242-2.679.57-5.229.977-7.826.127-.81.451-1.59.693-2.381.046-.15.177-.287.186-.435.09-1.543 1.152-2.547 1.983-3.693 1.532-2.112 3.057-4.23 4.507-6.398.567-.846.873-1.862 1.396-2.741.404-.678.757-1.322.933-2.122.132-.6.657-1.147 1.102-1.632.855-.932 1.838-1.75 2.657-2.71 1.739-2.037 3.772-3.765 5.966-5.228 1.405-.937 3.083-1.59 4.882-1.636.427-.011.85-.143 1.277-.209a266.29 266.29 0 012.797-.42c.894-.128 1.789-.254 2.686-.364.465-.056.938-.134 1.4-.097 1.139.094 2.272.27 3.411.372 1.104.1 2.204.173 3.292-.203.347-.119.773-.05 1.156-.007.705.078 1.403.214 2.108.303.688.087 1.153.388 1.393 1.089.437 1.286 1.314 1.891 2.735 2.044 1.75.188 3.533.43 5.111 1.372 1.558.928 3.175 1.762 4.707 2.728 3.136 1.975 5.297 4.697 6.214 8.35.211.838.524 1.663.887 2.45.77 1.674.942 3.389.653 5.2-.15.932-.132 1.894-.15 2.844-.023 1.31-.277 2.565-.586 3.843-.573 2.371-1.186 4.75-1.252 7.22-.04 1.58-.046 3.174-.272 4.731-.191 1.318-.666 2.595-1.039 3.884-.283.983-.602 1.954-.904 2.931-.07.226-.098.474-.205.68-1.57 3.028-3.22 5.949-6.062 8.076-2.783 2.083-5.381 4.413-8.038 6.661-1.31 1.109-2.69 2.118-4.302 2.697-1.479.532-3.009.995-4.856.657zm-10.376-31.357c.065 1.185-.159 2.482.254 3.53.814 2.065.872 4.477 2.614 6.148.11.105.172.268.23.414.638 1.623 1.813 2.866 2.957 4.12.333.366.812.612 1.256.856.455.25.889.074 1.127-.336.917-1.574 2.359-2.647 3.605-3.912a14.45 14.45 0 001.892-2.42c.779-1.233 1.456-2.532 2.156-3.814.415-.76.858-1.519 1.163-2.325.296-.786.682-1.417 1.49-1.725.518-.198.686-.582.673-1.121-.025-1.044-.305-1.914-1.219-2.559-.903-.638-1.696-1.395-2.243-2.404-1.205-2.231-2.837-4.074-5.092-5.31-.414-.228-.855-.428-1.22-.72-.42-.338-.789-.262-1.201-.042-1.988 1.06-3.975 2.12-5.969 3.169-.585.308-1.025.718-1.214 1.375-.662 2.314-1.497 4.597-1.259 7.076zm-4.202-3.746c1.406-.264 1.783-.89 1.243-1.763-.106-.174-.347-.377-.517-.369-.169.009-.423.243-.468.42-.126.514-.165 1.05-.258 1.712zm.032.238c-.902.665-1.126 1.09-.856 1.586.099.182.372.435.5.401.214-.056.52-.308.529-.49.022-.47-.099-.943-.173-1.497zm2.654-3.815c-.458-.258-.69-.487-.937-.504-.378-.028-.568.298-.456.63.069.202.363.473.536.46.23-.02.442-.284.857-.586zM86.596 188.78c-.455.39-.863.603-1.066.94-.48.799-1.208 1.255-1.97 1.711-1.16.693-2.299.18-2.396-1.17-.074-1.033-.04-2.076-.022-3.115.01-.632-.073-1.174-.532-1.692-.558-.633-.72-1.443-.427-2.27.55-1.552 1.06-3.125 1.727-4.626.262-.59.833-1.108 1.38-1.497 1.419-1.01 2.34-2.365 3.202-3.852 1.016-1.75 2.242-3.386 3.465-5.004.49-.649 1.006-1.239 1.236-2.043.496-1.733 1.732-3.066 2.556-4.623.896-1.693 1.767-3.4 2.643-5.103.368-.716.745-1.428 1.077-2.16.379-.834.703-1.693 1.072-2.532.137-.31.314-.606.506-.888.769-1.137 1.712-2.197 1.52-3.732a.844.844 0 01.15-.545c.97-1.361 1.19-3.056 2.01-4.473.518-.892 1.166-1.707 1.766-2.55.178-.248.404-.462.59-.707.678-.893.68-1.11.052-2.04-.625-.924-.663-1.754-.021-2.655a176.917 176.917 0 013.28-4.454c.618-.811 1.074-1.676 1.206-2.696.02-.152.033-.308.082-.451.185-.538.53-.623.942-.24.028.026.05.06.078.084.307.264.624.75.92.737.494-.022 1.097-.245 1.437-.594.823-.847 1.81-.764 2.794-.662.323.033.645.371.908.63.732.714 1.293.748 2.087.07.117-.1.209-.264.34-.306 1.499-.481 2.24-1.8 3.204-2.87.652-.725.998-.727 1.741-.13.563.452 1.182.841 1.8 1.218.653.399 1.324.774 2.01 1.115.78.387 1.13.167 1.21-.7.118-1.26.52-1.534 1.698-1.127.823.284 1.538.375 2.106-.523.316-.499.944-.481 1.484-.415.712.088 1.35.15 1.77-.648.216-.408.677-.4.963-.024.358.473.846.551 1.354.735.537.194 1.069.652 1.39 1.137.545.824.953 1.746 1.364 2.65.456 1.003.92 1.998.99 3.146.03.46.353.93.617 1.347.767 1.21 1.3 2.487 1.512 3.924.257 1.741.638 3.465.966 5.196.013.076.02.155.05.225 1.252 3.06 1.722 6.351 2.798 9.463.488 1.413.885 2.88 1.56 4.2 1.365 2.672 1.864 5.592 2.686 8.422.459 1.578 1.014 3.128 1.51 4.696.16.508.37 1.028.385 1.547.028.914.335 1.716.676 2.537.457 1.094 1.04 2.186 1.222 3.333.282 1.775.423 3.565 1.22 5.214-.161 1.614.454 3.064.911 4.558.175.572.144 1.217.15 1.828.003.522-.318.922-.813.966-.318.027-.787-.142-.973-.387-.762-1.004-1.432-2.079-2.156-3.112-.214-.305-.458-.618-.757-.83-.81-.574-1.678-1.067-2.483-1.646-.471-.34-.885-.412-1.363-.07-.154.11-.326.225-.506.267-1.387.33-1.593 1.539-1.926 2.624-.075.242.104.576.206.855.225.611.533 1.196.7 1.821.169.627.257 1.302-.452 1.807-.61-.175-1.035-.609-1.353-1.135-.829-1.374-1.533-2.835-2.478-4.121-.713-.972-1.669-1.791-2.617-2.555-.475-.382-1.223-.377-1.735.036-.482.386-.415.98-.315 1.585.159.977.22 1.975.243 2.967.019.752-1.136 2.138-1.841 2.32-.526.134-.982-.1-1.155-.538-.487-1.234-1.436-2.3-1.548-3.656-.17-2.064-.875-3.927-1.726-5.789-.661-1.447-1.506-2.844-1.63-4.52-.045-.622-.386-1.244-.683-1.821-.465-.906-1.053-.99-1.853-.33-.206.17-.409.357-.575.567-.57.717-1.344.986-2.213 1.065-.115.01-.234.004-.343.034-1.545.414-3.088.832-4.63 1.252-.147.04-.285.138-.432.153-1.398.134-2.69.586-3.914 1.257a.581.581 0 01-.215.08c-2.314.228-4.196 1.62-6.32 2.353-.178.06-.407.14-.493.283-.544.914-1.153 1.808-1.55 2.785-.489 1.2-.746 2.49-1.189 3.71-.295.818-.71 1.584-.988 2.428-.29.876-.914 1.707-1.574 2.38-1.166 1.187-3.395.552-3.82-1.04-.086-.323.06-.745.197-1.08.334-.81.294-1.172-.305-1.74-.787-.746-1.632-1.004-2.267-.511-.81.629-1.558 1.354-2.254 2.111-.67.73-1.143 1.644-2.075 2.119-.137.07-.259.194-.402.222-1.27.261-2.473.628-3.59 1.359-.698.456-1.491.108-2.101-.461-.523-.5-1.04-1.006-1.672-1.61zm35.902-29.881c.002.063.005.126.006.19 1.461-.313 2.94-.566 4.372-.98.385-.113.84-.693.89-1.102.09-.778.078-1.652-.202-2.365a7.125 7.125 0 01-.49-2.57c-.013-.923-.109-1.827-.589-2.659-.207-.361-.437-.784-.433-1.178.006-.757-.427-1.204-.898-1.658-.275-.266-.576-.507-.868-.755-.444-.38-.6-.84-.208-1.31.57-.682.511-1.304-.003-1.97-.16-.207-.259-.473-.345-.727-.202-.596-.51-1.014-1.23-.984-.677.029-.765.543-.912 1.014-.307.986-.54 1.997-.915 2.955-.404 1.034-.942 2.015-1.404 3.026-.124.271-.268.577-.255.86.04.82-.294 1.5-.692 2.161-.406.675-.636 1.385-.644 2.177a2.17 2.17 0 01-.192.882c-.39.83-.82 1.644-1.235 2.463-.481.95-.273 1.614.727 2.03.56.234 1.169.443 1.767.477 1.246.074 2.501.023 3.753.023zM290.395 34.796c0 .915.124 1.85-.027 2.74-.271 1.582-.665 3.148-1.094 4.696a25.378 25.378 0 01-1.076 3.126c-.408.964-.619 2.025-1.22 2.931a.837.837 0 00-.13.547c.126.738-.278 1.214-.72 1.722-1.563 1.794-3.076 3.63-4.65 5.414-.694.785-1.507 1.3-2.677 1.336-1.442.043-2.707.795-3.924 1.537-1.048.64-2.075 1.316-3.103 1.99-.539.355-1.107.44-1.752.413-.758-.031-1.522.09-2.284.142-.535.036-1.08.138-1.605.08a266.845 266.845 0 01-6.957-.845c-.696-.094-1.212.111-1.815.454-1.119.635-1.739 1.541-2.092 2.724-.107.358-.354.676-.55 1.004-.469.776-.463.917.113 1.632.048.06.097.122.155.17 1.135.92 1.533 1.97.654 3.3-.136.206-.1.52-.166.779-.133.517-.171 1.1-.447 1.53-.753 1.176-.79 2.442-.732 3.763.047 1.063-.06 2.134.003 3.195.085 1.422-.567 2.596-1.157 3.787-.34.683-1.018 1.034-1.74 1.235-.907.254-1.424-.082-1.673-1.01-.078-.291-.161-.614-.347-.837-.51-.612-.717-1.276-.843-2.076-.174-1.1-1.043-1.842-2-2.364-.215-.118-.732.015-.922.213-.496.517-.893 1.128-1.316 1.713-.243.337-.383.797-.697 1.024-.797.576-1.36 1.324-1.934 2.098-.391.53-.63 1.018-.507 1.684.075.405.164.891-.314 1.13-.487.246-.993.179-1.376-.228-.518-.55-1.045-.547-1.633-.138-.539.376-1.07.267-1.63-.005-.548-.267-1.12-.512-1.706-.668-.907-.243-1.335-.007-1.541.852-.14.583-.213 1.19-.94 1.264-.693.07-1.28-.186-1.66-.815-.06-.098-.113-.238-.202-.272-.305-.12-.672-.34-.926-.258-.246.081-.504.478-.538.762-.049.4.088.828.171 1.238.182.886-.205 1.318-1.116 1.213a1.775 1.775 0 01-.445-.115c-.597-.237-1.044.008-1.429.443-.153.171-.276.375-.445.528-.394.357-.814.355-1.063-.116-.517-.973-1.133-1.963-.343-3.11.43-.624.331-1.224-.203-1.772a7.172 7.172 0 01-.722-.895c-1.299-1.858-1.195-3.87.338-5.568.457-.507 1.015-.937 1.578-1.329.489-.34.782-.716.71-1.33-.05-.423-.22-.731-.667-.826-.188-.04-.378-.07-.56-.127-1.437-.448-1.676-1.37-.66-2.479 1.627-1.772 1.84-3.586.708-5.593-.808-1.43-.93-2.805-.466-4.299.154-.495.161-.94-.023-1.444-.37-1.015-.23-1.34.634-1.942 1.098-.767 2.207-1.497 2.854-2.762.271-.529.473-1.02.501-1.61.03-.609.057-1.235.22-1.815.188-.669.12-1.275-.068-1.918-.225-.77-.593-1.231-1.408-1.613-1.285-.599-2.248-1.706-2.85-3.047a51.936 51.936 0 01-.672-1.58c-.415-1.015-.372-1.9.237-2.925.932-1.564 1.741-3.22 1.78-5.148.042-2.083.662-4.075 1.21-6.07.21-.769.474-1.545.525-2.33.076-1.165.776-1.906 1.543-2.593.582-.52 1.068-1.069 1.46-1.75.868-1.505 2.225-2.36 3.897-2.806.732-.193 1.426-.554 2.113-.886.861-.416 1.701-.874 2.545-1.326 1.71-.917 3.553-1.369 5.448-1.732 2.139-.409 4.272-.89 6.288-1.763.035-.015.07-.039.106-.045 2.44-.379 4.71-1.562 7.293-1.358 1.336.105 2.726.123 4.037-.605.652-.362 1.566-.325 2.363-.337 2.462-.039 4.923-.019 7.386-.01.422.001.848.03 1.263.1 2.152.363 4.31.706 6.45 1.129 2.465.487 4.3 1.686 4.913 4.35.183.792.76 1.492 1.142 2.241a965.533 965.533 0 012.43 4.804c.085.17.18.352.205.537.238 1.711 1.306 3.076 1.912 4.63.245.624.364 1.316.428 1.989.072.761.016 1.536.016 2.305.044-.004.09-.004.134-.004zm-33.825 19.76c1.069.055 2.06-.136 3.007-.651.397-.215.864-.318 1.31-.422 2.953-.695 5.369-2.216 7.182-4.66.48-.647.981-1.287 1.372-1.985.228-.41.354-.932.353-1.403-.002-.605-.066-1.259-.305-1.803-.36-.82-.171-1.46.265-2.151.75-1.19.53-2.35-.257-3.433-.383-.525-.822-1.012-1.25-1.506-.777-.898-1.599-1.763-2.342-2.69a12.072 12.072 0 00-4.18-3.357c-.654-.32-1.24-.298-1.86.045-.33.183-.694.308-1.044.455-.451.189-.898.389-1.356.557-1 .369-1.983.835-3.017 1.052-1.305.275-2.658.316-3.982.52-.28.044-.696.326-.746.562-.207.986-.857 1.645-1.57 2.215-1.124.9-2.073 1.817-2.431 3.338-.234.989-.472 1.942-.308 2.931.25 1.513.073 3.044-.332 4.428-.39 1.337-.367 2.264.748 3.098.088.066.138.183.204.277 1.277 1.834 3.212 2.801 5.09 3.84.196.11.432.174.657.2 1.597.19 3.195.364 4.792.543zm-20.79 2.714c-.215.083-.565.157-.841.342-.245.164-.38.486-.612.677-.65.537-.944 1.136-.68 2.012.17.558-.08.754-.676.701a1.658 1.658 0 01-.335-.076c-.573-.177-.936.046-1.214.558-.636 1.166-.517 1.718.645 2.6-.095.312-.223.63-.285.962-.092.493.198.831.697.801.261-.016.526-.108.77-.208 1.29-.534 2.6-.87 4.022-.722.748.077 1.2-.366 1.126-1.099-.046-.464-.217-1.012-.528-1.331-.48-.493-.61-1.007-.607-1.648.003-.407-.048-.852-.214-1.216-.345-.753-.78-1.463-1.268-2.353zM78.304 112.268c-1.119-.127-2.027-.118-2.793.567-.136.121-.371.273-.509.233-1.081-.307-2.287.253-3.307-.524-.601-.457-1.113-.312-1.692.307-.55.588-1.079 1.208-1.7 1.711-1.106.893-1.663.9-2.762.017-2.097-1.683-2.06-.979-3.693.215-.277.203-.48.505-.752.714-.486.374-.897.319-1.312-.138-.532-.587-.72-1.293-.518-2.038.246-.911.325-1.668-.808-2.037-.158-.051-.332-.574-.245-.764.618-1.37.582-2.854.725-4.283.14-1.405.606-2.644 1.439-3.697 1.405-1.775 2.258-3.835 3.227-5.835.19-.392.239-.9.204-1.344-.072-.945.179-1.782.811-2.44 1.228-1.282 1.744-2.952 2.57-4.452.962-1.747 1.911-3.503 2.92-5.223.325-.555.818-1.011 1.234-1.513 1.355-1.633 2.483-3.395 3.295-5.372 1.236-3.015 2.569-5.986 4.234-8.8.624-1.055 1.153-2.17 1.649-3.293.226-.512.307-1.102.378-1.666a12.3 12.3 0 00.08-1.84c-.015-.512.178-.903.538-1.219 1.006-.882 1.927-1.859 3.236-2.353 1.285-.486 2.503-1.11 3.844-1.497.9-.26 1.669-1.04 2.448-1.65.612-.48 1.2-.974 2-1.055.372-.037.791-.066 1.13.061 1.25.472 2.538.54 3.853.518 1.507-.026 1.887.32 2.135 1.79.05.303.118.602.151.906.054.483.338.748.772.906.498.18.94.065 1.244-.334.441-.576.799-1.217 1.236-1.799.32-.424.654-.872 1.082-1.168.686-.475 1.184-.285 1.565.466.07.137.097.296.173.426.343.584.833.644 1.312.158.135-.135.266-.288.347-.459.35-.727 1-1.092 1.716-1.239a17.889 17.889 0 013.072-.365c.337-.01.827.32 1.002.631.579 1.03 1.128 2.092 1.532 3.198.432 1.185.671 2.44 1.023 3.656.159.548.385 1.076.586 1.61.135.357.374.703.403 1.067.143 1.762.882 3.334 1.528 4.93.592 1.46 1.119 2.916 1.381 4.492.179 1.073.728 2.086 1.121 3.123.395 1.04.835 2.066 1.188 3.12.204.608.267 1.261.408 1.89.098.44.17.895.343 1.306 1.037 2.47 2.254 4.872 2.654 7.568.072.486.211 1 .463 1.413.614 1.004.644 2.094.715 3.212.047.747.147 1.587.526 2.198.714 1.144 1.12 2.323 1.191 3.654.061 1.149.167 2.296.265 3.441.059.683-.165 1.262-.5 1.852-.295.522-.555 1.11-.634 1.696-.121.9-.598 1.457-1.334 1.88-1.064.61-2.25.79-3.433.827-.425.013-.988-.287-1.274-.627-1.126-1.333-2.529-1.312-3.421.54-.148.308-.34.607-.566.866-1.08 1.243-2.222 1.17-3.427.067-1.27-1.16-2.69-2.161-4.079-3.185-.226-.167-.703-.237-.927-.11-.405.23-.233.66-.072 1.027.403.912.792 1.83 1.192 2.741.33.754.09 1.48-.7 2.076-.713.538-1.27.506-1.966-.083-1.29-1.093-1.861-2.598-2.403-4.125-.229-.644-.547-1.26-.727-1.915-.138-.502-.214-1.056-.155-1.57.1-.895-.067-1.656-.65-2.36-.557-.674-.758-1.416-.592-2.35.253-1.407-.738-2.452-2.183-2.49-.497-.012-1.038-.067-1.489.092-1.98.699-4.005.348-6.016.386-.523.01-1.058.171-1.56.345-.875.304-1.733.517-2.685.421-1.15-.117-2.279-.027-3.338.61-.902.542-1.488 1.27-1.936 2.201-.847 1.762-1.723 3.515-2.675 5.222-.326.584-.865 1.08-1.392 1.512-1.084.89-1.133 1.033-.312 2.117.024.03.067.053.076.085.07.279.265.627.164.818-.107.205-.487.337-.763.367-.416.046-.843-.028-1.081-.04zm18.793-25.073l.063.259c.577-.16 1.19-.246 1.724-.496 1.625-.76 1.739-1.363.574-2.776-.406-.493-.75-1.05-.66-1.664.154-1.034-.053-1.985-.447-2.902-.51-1.188-.542-2.329-.092-3.56.224-.613.193-1.353.125-2.02-.03-.294-.39-.674-.688-.79-.47-.182-1.015-.113-1.34.373-.232.348-.457.727-.57 1.125-.556 1.958-1.269 3.847-2.319 5.6-.155.258-.221.57-.338.853-.642 1.56-1.229 3.146-1.948 4.67-.632 1.337-.296 2.123 1.184 2.14.865.01 1.735-.245 2.6-.396.713-.127 1.421-.276 2.132-.416zM55.933 109.145c.224 1.935.104 3.654-.415 5.309-.36 1.148-1.258 1.907-2.34 2.418-.451.213-.946.347-1.368.604-1.334.812-2.793.876-4.304 1.018-1.932.18-3.75-.069-5.647-.367-2.332-.366-4.745-.253-7.124-.287-.874-.012-1.678-.096-2.371-.68-.85-.714-1.746-.692-2.664-.129-.065.04-.14.065-.21.098-2.01.99-2.132.982-3.943-.307-.345-.244-.675-.507-1.022-.748-.622-.433-1.269-.611-2.054-.418-.962.236-1.894.178-2.635-.673-1.565-1.798-3.68-2.714-5.858-3.49-1.314-.468-2.596-.977-3.564-2.03a7.375 7.375 0 01-.811-1.103c-.53-.848-1.01-1.725-1.546-2.566-1.256-1.974-2.508-3.951-3.814-5.892a17.66 17.66 0 00-1.935-2.423c-.73-.756-1.063-1.505-.824-2.585.132-.594.035-1.319-.19-1.895-.575-1.477-.7-2.963-.49-4.514a5.715 5.715 0 00-.006-1.492c-.2-1.552-.388-3.11-.686-4.645a6.05 6.05 0 01.127-2.846c.422-1.473.948-2.915 1.454-4.363.455-1.302.963-2.586 1.4-3.893.13-.39.147-.837.13-1.254-.052-1.32.347-2.493 1.069-3.574.619-.927 1.237-1.853 1.854-2.781.842-1.268 1.869-2.326 3.272-2.988 1.825-.861 3.385-2.1 4.833-3.492.896-.861 1.896-1.526 3.121-1.87 2.161-.607 4.064-1.806 6.07-2.766a9.602 9.602 0 011.94-.701c.426-.1.943-.098 1.349.05 1.608.589 3.173.294 4.747-.099 1.263-.314 2.518-.668 3.794-.914.463-.09.984.044 1.464.144.371.077.757.202 1.075.402 1.577.99 3.308 1.134 5.1 1.016.267-.018.561-.059.803.028 1.465.527 2.917 1.09 4.375 1.636.387.144.768.341 1.168.4 2.109.31 3.838 1.264 5.178 2.924.392.485.464 1.013.394 1.62-.085.755-.15 1.525-.094 2.28.082 1.093-.152 1.757-1.142 2.255-.712.358-1.485.608-2.25.846-.545.17-1.04.323-1.078 1.007-.034.609.231 1.03.98 1.214 1.147.282 1.922 1.101 2.782 1.792.482.388.487.727.042 1.175-.68.685-1.416 1.302-2.457 1.372a5.04 5.04 0 00-1.127.212c-.778.24-1.04.792-.671 1.513.185.362.528.64.788.965.283.354.688.682.803 1.087.233.834.533 1.578 1.202 2.166.326.286.309.671.04 1.039-.514.704-1.646 1.199-2.44.905-1.425-.529-2.92-.58-4.385-.846-1.11-.2-2.17-.718-3.228-1.155-1.17-.484-2.314-1.03-3.464-1.562-.935-.434-1.764-.332-2.721.129a69.844 69.844 0 01-6.256 2.632c-1.38.506-2.23 1.269-2.315 2.787-.086 1.516-.548 2.94-1.246 4.275-.446.851-.338 1.612.117 2.395.365.631.705 1.277 1.057 1.917.424.772.505 1.506-.13 2.235-.215.25-.353.591-.451.914-.278.91-.01 1.258.913 1.403.635.101 1.25.316 1.878.463 1.037.24 1.782.92 2.392 1.714.564.736 1.266.951 2.117.878.343-.03.68-.164 1.02-.165.796-.004 1.591.063 2.387.065.598.002 1.262.101 1.782-.116.806-.338 1.594-.52 2.455-.464.78.051 1.527.003 2.159-.57.438-.398.908-.343 1.327.074 1.046 1.048 2.21 1.078 3.607.712 1.123-.293 2.358-.154 3.543-.191.143-.005.296.077.434.143.522.25 1.103.48 1.18 1.147.071.63-.43.936-.868 1.256-.912.67-.986 1.613-.194 2.418.053.055.12.095.178.147.926.855.933 1.003-.029 1.884a28.247 28.247 0 01-1.828 1.553c-1.203.929-1.144 1.779.182 2.574.524.314 1.038.655 1.51 1.04.73.597 1.437 1.186 2.603.604zM30.4 148.454c-.137-1.007.086-2.175.715-3.297.259-.461.33-1.054.385-1.597.091-.876.23-1.721.696-2.491.14-.232.269-.514.274-.775.022-1.142.656-1.925 1.467-2.602a9.917 9.917 0 002.338-2.792c.604-1.07 1.564-1.928 2.865-2.148 1.36-.228 2.595-.643 3.605-1.645.465-.46 1.09-.574 1.77-.492 1.04.124 2.036-.096 3.019-.48.612-.242 1.296-.294 1.942-.456 1.11-.277 2.247-.488 3.31-.89.858-.323 1.666-.475 2.543-.227.835.237 1.583.157 2.398-.258.676-.345 1.523-.35 2.288-.529.527-.121 1.073-.218 1.56-.438.7-.316 1.372-.502 2.16-.387.7.102 1.43.084 2.138.026 2.062-.166 4.015.38 5.965.893 3.035.8 6.095 1.405 9.244 1.236 1.203-.064 1.924.54 2.627 1.326.306.342.33.699.146 1.096-.449.967-.864 1.952-1.352 2.9-.324.63-.75 1.207-1.136 1.805-.503.78-.498 1.297.206 1.867.617.498.747 1.05.6 1.78-.094.46-.081.945-.091 1.418-.03 1.304-.222 1.58-1.483 1.908-.859.222-1.536.583-1.755 1.544-.146.645.049 1.193.412 1.66.381.491.368.916.06 1.405-.149.233-.257.492-.387.736-.7 1.313-1.008 1.451-2.457 1.219-.465-.075-.96-.133-1.417-.055-2.035.348-3.935.065-5.689-1.06-.131-.085-.28-.172-.43-.198-1.198-.203-2.415-.333-3.349-1.26-.109-.11-.391-.125-.564-.077-.907.254-1.79.13-2.701-.01-.607-.093-1.258.029-1.88.122-1.442.216-2.8.831-4.302.83-.896 0-1.25.414-1.286 1.095-.043.813.433 1.464 1.269 1.615.738.135 1.497.146 2.236.279.65.117 1.323.238 1.91.52.592.284 1.162.469 1.815.426a3.62 3.62 0 012.057.46 6.244 6.244 0 003.067.816c1.279.005 2.336.723 3.407 1.275.881.453 1.87.887 2.308 1.947.09.219.415.352.65.497.437.271.882.532 1.336.777 1.615.87 2.61 2.274 3.323 3.906.154.351.205.758.252 1.145.158 1.294.25 2.596.449 3.883.146.943-.232 1.796-.292 2.69-.058.834.423 1.738.254 2.524-.67 3.11-1.695 6.087-3.67 8.674-1.276 1.668-2.396 3.454-4.013 4.835a.445.445 0 00-.082.086c-1.523 2.438-4.132 3.373-6.504 4.578-1.61.818-3.376 1.327-5.06 2.003-.585.235-1.165.512-1.695.853-1.169.751-2.312.7-3.47.013-.307-.181-.588-.436-.917-.545-.43-.142-.903-.256-1.348-.231-.904.052-1.8.247-2.705.3-.415.023-.854-.118-1.261-.246-1.167-.366-2.284-.54-3.38.263-.62.454-1.361.538-2.151.48-1.809-.13-3.527-.474-4.969-1.664-.397-.328-.797-.29-1.216-.077-.567.29-1.085.17-1.692.008-1.48-.394-2.716-1.26-4.038-1.941-1.052-.542-2.07-1.003-3.265-.869-.864.096-1.562-.219-2.144-.805-1.09-1.097-2.148-2.226-3.233-3.328-.55-.558-.593-1.162-.283-1.85.322-.714.867-.976 1.623-.934.551.03 1.112.051 1.66-.005.821-.083 1.14-.513.924-1.297a3.858 3.858 0 00-.64-1.259c-.503-.666-.697-1.407-.739-2.214-.046-.879.022-1.006.807-1.378 1.229-.585 1.425-1.46.734-2.705-.475-.855-.828-1.78-1.187-2.694-.144-.366-.025-.793.439-.794 1.685-.006 2.596-1.25 3.576-2.28.747-.784 1.334-1.276 2.586-1.214 1.099.054 1.852.389 2.658.983.764.561 1.612 1.008 2.409 1.526.793.515 1.547 1.095 2.357 1.58a39.786 39.786 0 002.907 1.56c.302.148.724.239 1.033.15.72-.21 1.333-.008 1.93.316.559.302 1.178.456 1.716.184 1.45-.736 3.008-.918 4.58-1.117.889-.112 1.701-.489 2.227-1.238.255-.363.5-.89.433-1.287-.147-.848-.462-1.677-.786-2.482-.243-.601-.704-1.015-1.362-1.238-.968-.327-1.869-.616-2.969-.544-1.354.09-2.739-.258-3.99-.948-1.487-.82-3.035-1.539-4.738-1.754-1.506-.19-2.68-.903-3.66-2.01-.629-.712-1.27-1.414-1.891-2.134-.908-1.051-1.797-2.104-2.181-3.5a3.064 3.064 0 00-.786-1.313c-.93-.91-1.314-1.952-1.072-3.23.027-.156.002-.32.002-.73z"/><path d="M192.968 97.183c-1.123-.718-1.271-1.377-.613-2.457a1.999 1.999 0 01.613 2.457zM276.405 93.19c.09-.488.195-1.107.008-1.492-.756-1.565.2-4.274-.68-5.755-.433-.727-1.104-.654-1.761-.199-1.688 1.164-1.807 1.13-2.762-.677-.05-.096-.087-.203-.144-.295-.522-.834-1.071-.957-1.79-.293-.473.435-.853.993-1.277 1.494-.841.994-1.348 1.178-2.406.546-.763-.456-1.337-.302-1.942.279-.157.15-.327.283-.496.415-1.211.944-1.94.765-2.536-.661-.029-.067-.049-.138-.072-.207-1.358-.065-3.669-.41-4.148 1.08-.164.51-.525.78-.927.893-.002 0-.003.003-.004.005-.375.927-1.084 1.595-2.274 1.995-1.9.638-2.48 2.038-1.911 4.102.41 1.492-1.046 5.159-.565 10.2-1.33.716-2.648 1.46-4.211 1.606-.226.021-.445.164-.658.27-1.025.523-2.034 1.08-3.076 1.567-.448.21-.957.371-1.446.394-.912.043-1.682.339-2.407.886-.5.376-1.072.662-1.629.955-.808.425-1.666.763-2.434 1.248-.52.327-1.026.775-1.351 1.289-.845 1.33-.697 1.915.55 2.885.487.38.879.805.77 1.49-.127.792-.691 1.074-1.392 1.27-.52.146-1.058.346-1.489.659-.416.302-.645.781-.442 1.368.549 1.583 2.497 3.035 4.181 3.066.634.01 1.27-.05 1.904-.05 2.23-.001 3.578 1.828 2.888 3.91-.012.037-.021.077-.04.111-.314.624-.124 1.162.323 1.618.275.281.592.53.922.743 2.414 1.559 4.902 1.192 7.387.222.672-.263 1.301-.594 2.016-.332l.115-.051c.001.108-.001.216.001.324.012.431.158.886.063 1.286-.259 1.078-.238 5.022-.637 6.054-.258.67-.208 1.186.163 1.782.285.456.62 1.019.585 1.51-.149 2.087.153 4.186-.393 6.274-.44 1.671-.749 3.44.534 5.002.334.406.3.927.184 1.475-.235 1.12-.527 2.269-.484 3.395.099 2.519.387 5.03.6 7.544.063.73.749 1.668 1.353 1.81.822.195 1.377-.233 1.79-.875.279-.432.51-.894.751-1.347.15-.28.25-.59.421-.853.536-.821 1.473-.862 2.073-.1.122.153.203.34.306.509.744 1.224 1.676.96 2.289.13.48-.65.747-1.465 1.064-2.225.272-.654.446-1.349.73-1.995.241-.545.782-.639 1.317-.621.546.019.708.426.814.877.036.153.102.3.17.443.566 1.175 2.279 1.574 3.309.773 1.255-.977 1.538-.978 2.814-.018 1.064.8 1.611.685 2.241-.496.13-.24.25-.507.29-.774.162-1.055.325-2.111.427-3.174.18-1.891.283-3.789.485-5.678.108-1.016.432-2.01.52-3.027.15-1.695.25-3.4.254-5.101.005-1.517.087-3.009.54-4.464.242-.78.202-1.544.048-2.347a8.738 8.738 0 01-.122-2.242c.12-1.696.327-3.385.483-5.079.092-.988-.143-7.083-.104-9.81 1.285-.3 2.776-.463 3.345-.468.343-.003.691-.15 1.027-.261 1.203-.398 2.374-.943 3.607-1.182 2.052-.396 3.874-1.38 5.815-2.045.389-.133.755-.454 1.027-.777.626-.74.471-1.616-.349-2.13-.33-.208-.723-.313-1.08-.482-.779-.37-.991-.825-.643-1.632.305-.71.446-1.377.282-2.17-.233-1.123.213-1.702 1.34-1.994.303-.078.626-.08.939-.113 1.13-.122 1.43-.54 1.22-1.678-.07-.388-.173-.783-.151-1.17.043-.806-.306-1.336-1.065-1.483-1.151-.222-1.403-.97-1.422-1.996-.025-1.33-.476-1.754-1.795-1.845-.119-.009-.238-.003-.356-.009-1.463-.07-2.925-.156-4.39-.207-.472-.017-.948.047-1.421.088-1.336.115-2.673.221-4.006.364-.586.063-1.166.17-1.746.276-.212-.402-.53-.716-.178-1.428z"/></g></svg>