<svg width="793.701" height="1122.52" viewBox="0 0 744.095 1052.362" xmlns="http://www.w3.org/2000/svg"><path d="M301.456 586.54c-44.638-12.555-82.681-59.237-105.998-130.068-4.32-13.12-7.853-24.785-7.853-25.92 0-1.137-3.923-6.214-8.717-11.284-9.788-10.349-15.784-24.022-17.632-40.206-.677-5.937-3.376-14.467-6.361-20.108-7.618-14.397-10.87-27.332-10.18-40.483l.6-11.434-22.496-1.164c-66.906-3.463-101.277-7.38-111.6-12.718-10.45-5.404-13.752-16.9-8.032-27.961 9.788-18.927 72.32-47.355 132.68-60.318 17.564-3.772 22.98-5.603 23.1-7.807.084-1.584.725-20.696 1.424-42.47 1.035-32.274 1.842-40.664 4.365-45.393 1.904-3.567 8.864-9.599 18.079-15.667 17.198-11.326 36.56-30.918 42.326-42.831 2.176-4.495 4.698-12.727 5.604-18.294C235.37 4.111 247.19.022 324.375.022s89.004 4.09 93.61 32.392c.906 5.567 3.428 13.799 5.604 18.294 5.767 11.913 25.128 31.505 42.326 42.83 9.218 6.072 16.173 12.1 18.077 15.668 2.972 5.571 3.668 15.835 5.777 85.163l.17 5.58 22.944 4.927c60.36 12.963 122.892 41.391 132.68 60.318 5.72 11.061 2.418 22.557-8.033 27.961-10.322 5.338-44.693 9.255-111.6 12.718l-22.494 1.164.6 11.434c.69 13.15-2.563 26.084-10.18 40.483-3.499 6.613-5.53 13.637-6.251 21.613-1.59 17.587-7.49 31.56-17.404 41.216-7.675 7.475-9.038 10.194-15.859 31.631-8.598 27.024-24.716 60.758-37.952 79.435-17.797 25.113-38.596 42.498-61.16 51.12-13.242 5.06-40.322 6.356-53.774 2.572zm72.773-181c19.945-9.947 7.946-20.65 7.946-20.65l-23.245 5.673s-16.169 8.868-20.054 10.01c-9.048 2.66-15.973.056-24.512-1.446-4.155-.73-10.214-5.274-14.477-5.994-4.264-.72-11.172-.309-16.586-2.171-5.413-1.863-17.83-2.093-18.33-1.592-1.506 1.506 8.142 13.755 17.674 19.872 14.907 9.566 27.797 13.874 45.492 13.201 13.689-.52 34.491-11.116 46.092-16.903z" fill="#fcab2a"/><g transform="translate(-47.226 -231.806)"><path d="M359.73 802.924c-40.568-7.016-77.86-51.252-100.273-118.943-3.399-10.265-7.184-23.152-8.412-28.638-1.927-8.61-3.114-10.453-8.688-13.476-8.567-4.647-14.28-16.195-16.42-33.196-1.2-9.521-3.537-17.02-7.934-25.455-12-23.023-12.416-42.097-1.1-50.464 7.034-5.2 7.133-10.462.196-10.462-2.824 0-21.653-.81-41.841-1.798-64.979-3.183-100.335-6.81-108.385-11.118-3.163-1.693-2.99-2.224 2.607-7.998 15.022-15.5 75.14-39.104 125.936-49.449l28.07-5.716 1.25-46.594c.688-25.627 1.728-47.84 2.311-49.36.584-1.521 6.826-6.52 13.87-11.11 29.415-19.16 51.166-47.834 54.1-71.318.948-7.588 2.266-10.824 5.185-12.728 13.43-8.76 129.368-8.76 142.798 0 2.918 1.904 4.237 5.14 5.185 12.728 2.934 23.484 24.685 52.158 54.099 71.318 7.045 4.59 13.3 9.626 13.902 11.192.6 1.566 1.643 23.779 2.316 49.361l1.224 46.513 28.065 5.715c50.791 10.344 110.91 33.95 125.931 49.448 5.597 5.774 5.77 6.305 2.607 7.998-8.203 4.39-41.87 7.842-108.385 11.112-20.189.992-38.207 1.804-40.042 1.804-4.577 0-4.404 7.472.272 11.704 9.278 8.397 8.192 27.797-2.728 48.748-4.169 7.998-6.373 15.179-7.26 23.655-.7 6.695-2.835 16.39-4.746 21.545-3.371 9.1-11.879 18.52-16.725 18.52-1.39 0-3.315 3.938-4.622 9.448-10.257 43.274-32.4 89.128-55.64 115.224-21.403 24.032-50.903 36.255-76.723 31.79zm34.366-26.626c53.881-25.611 94.479-136.303 94.479-257.603v-28.408l-33.743-1.354c-33.766-1.356-139.032-.094-179.315 2.15l-21.4 1.192 1.047 38.852c1.482 54.978 8.109 95.88 22.899 141.34C300.294 740.802 335.17 781.43 371.6 781.43c9.138 0 14.06-1.123 22.495-5.132zM356.66 701.45c-14.493-5.17-29.163-18.803-24.86-23.105 1.366-1.367 2.852-1.086 5.122.969 4.965 4.493 22.148 11.927 30.443 13.171 9.779 1.466 24.687-2.892 34.696-10.142 5.363-3.885 8.31-5.029 9.61-3.73 3.26 3.26-6.773 13.905-18.737 19.884-12.426 6.21-24.41 7.185-36.274 2.953zm-10.254-38.776c-5.443-2.009-14.3-6.68-19.68-10.382-9.364-6.442-23.86-23.62-26.228-31.083-1.59-5.012-4.16-4.397-7.714 1.846-5.546 9.748-8.842 5.642-5.765-7.183 3.033-12.643 4.363-13.203 19.345-8.134 11.77 3.982 36.939 9.93 42.02 9.93 1.597 0 1.952-10.432 1.425-41.809-.63-37.475-.4-41.868 2.216-42.378 7.23-1.411 12.769 26.779 12.827 65.291.023 14.955-3.713 24.21-1.72 28.233.7 1.413 8 3.26 11.288 3.26 7.411 0 15.152-6.303 17.949-14.616 2.585-7.683 8.025-9.346 8.025-2.454 0 4.636.245 4.748 7.649 3.507 4.206-.706 15.578-3.504 25.27-6.22l17.623-4.937 2.383 4.712c3.518 6.959 5.12 17.714 2.846 19.119-1.06.655-3.573-.902-5.584-3.46-2.012-2.556-4.225-4.649-4.918-4.649-.693 0-2.784 2.831-4.648 6.291-5.519 10.248-23.162 25.698-36.504 31.966-10.762 5.057-14.354 5.802-30.21 6.27-14.561.43-19.886-.166-27.895-3.12zm38.727-10.973c12.93-2.39 29.123-10.337 38.71-18.999 7.435-6.717 9.823-12.972 3.995-10.465-1.732.745-9.627 3.262-17.546 5.595-7.918 2.332-17.618 6.014-21.556 8.182-9.929 5.466-31.8 9.431-36.346-.574-2.32-5.105-6.401-5.175-8.046-5.175-1.646 0-8.738-1.944-15.761-4.32-12.128-4.103-12.77-4.151-12.77-.958 0 4.053 15.578 16.212 27.562 21.513 15.153 6.703 26.195 8.078 41.758 5.201zm-147.896-87.609c-1.21-21.14-2.577-23.969-9.735-20.138-5.029 2.691-4.52 14.692 1.139 26.85 4.623 9.93 7.988 15.073 9.122 13.938.341-.34.104-9.633-.526-20.65zm276.71 7.92c6.296-13.31 7.04-25.228 1.752-28.058-6.407-3.43-9.128-.521-9.128 9.757 0 5.192-.534 14.546-1.186 20.785-1.478 14.145 1.04 13.414 8.562-2.485zm-365.288-81.26c113.043-21.317 256.53-26.418 373.01-13.26 17.707 2 43.193 5.566 56.635 7.923 13.443 2.357 24.687 4.04 24.986 3.74 1.349-1.348-41.046-12.51-68.805-18.114-66.578-13.441-114.677-17.91-178.18-16.551-57.191 1.223-106.64 7.142-161.95 19.384-24.107 5.336-75.436 20.75-70.89 21.29.61.072 11.948-1.913 25.194-4.411zM493.974 365.99c0-2.1-5.756-7.595-15.55-14.847-25.711-19.035-41.876-39.715-50.045-64.021l-4.125-12.278-11.48-1.139c-14.829-1.472-67.517-1.472-82.346 0l-11.48 1.14-4.126 12.277c-8.168 24.306-24.333 44.986-50.044 64.021-16.642 12.321-19.737 17.396-9.701 15.907 61.24-9.087 64.315-9.323 121.923-9.366 51.554-.037 58.784.337 79.84 4.135 12.734 2.296 24.881 4.873 26.994 5.726 6.448 2.603 10.14 2.036 10.14-1.555z"/><circle r="26.264" cy="530.618" cx="311.632" fill-rule="evenodd" stroke="#000"/><circle r="26.264" cy="531.123" cx="432.345" fill-rule="evenodd" stroke="#000"/></g><path d="M324.011 200.93c-3.446-1.92-5.744-3.553-8.214-5.835-4.42-4.085-8.15-9.172-11.217-15.303-2.84-5.676-5.15-12.44-6.361-18.631-.155-.792-.974-6.089-.945-6.11.006-.004 1.13-.076 2.498-.159 2.596-.158 3.41-.236 4.494-.431 4.503-.81 10.18-3.302 15.879-6.968 1.262-.812 2.166-1.448 3.706-2.605.747-.56 1.395-1.02 1.442-1.019.047 0 .784.524 1.64 1.164 6.492 4.857 13.837 8.429 19.387 9.428 1.084.195 1.897.273 4.494.431 1.368.083 2.492.155 2.498.16.027.019-.779 5.266-.916 5.967-.9 4.61-2.512 9.905-4.381 14.386-3.009 7.212-6.875 13.273-11.445 17.94-3.267 3.335-5.9 5.325-10.135 7.658-.6.33-1.12.6-1.158.597-.038-.002-.607-.304-1.266-.67z" fill="#fcab2a"/></svg>