<?xml version="1.0" encoding="UTF-8"?>
<svg version="1.1" viewBox="0 0 512 512" xml:space="preserve" xmlns="http://www.w3.org/2000/svg" xmlns:cc="http://creativecommons.org/ns#" xmlns:dc="http://purl.org/dc/elements/1.1/" xmlns:rdf="http://www.w3.org/1999/02/22-rdf-syntax-ns#"><metadata><rdf:RDF><cc:Work rdf:about=""><dc:format>image/svg+xml</dc:format><dc:type rdf:resource="http://purl.org/dc/dcmitype/StillImage"/></cc:Work></rdf:RDF></metadata><path d="m244.73 489.92c-19.166-10.724-28.503-16.69-42.129-26.915-30.854-23.154-59.192-53.156-83.564-88.47-40.109-58.115-71.587-134.39-87.451-211.92-1.7146-8.3788-8.7222-53.224-8.3717-53.575 0.0813-0.0813 10.287-0.79689 22.68-1.5902 22.615-1.4476 31.053-2.3788 41.078-4.5329 45.991-9.8823 103.7-38.592 155.77-77.496 7.0397-5.2595 13.006-9.5628 13.259-9.5628 0.25295 0 6.2196 4.3023 13.259 9.5607 57.113 42.661 120.48 72.743 167.74 79.631 3.6154 0.52689 16.713 1.607 29.105 2.4003 12.393 0.79328 22.6 1.5108 22.684 1.5946 0.35372 0.35371-6.6505 45.139-8.3896 53.643-13.439 65.72-39.006 132.85-70.863 186.06-24.765 41.365-53.898 76.169-86.929 103.85-11.273 9.4483-27.397 20.986-39.614 28.345-3.6019 2.1698-27.069 15.29-27.179 15.196-0.0293-0.025-5.0198-2.8247-11.09-6.2212z" fill="#ffa500" stroke-width=".37562"/><path d="m247.08 474.21c-28.341-15.908-49.804-32.388-73.261-56.25-43.789-44.546-78.295-102.19-104.37-174.36-10.138-28.056-19.823-62.978-24.734-89.185-1.4094-7.5214-5.1137-32.141-4.8732-32.389 0.1092-0.1124 6.2691-0.58137 13.689-1.0422 20.806-1.2921 29.695-2.5996 46.357-6.818 43.954-11.128 100.79-39.945 148.25-75.161l7.8646-5.8358 7.8646 5.8358c9.9884 7.4118 16.787 12.141 25.941 18.046 42.932 27.691 86.562 48.065 122.31 57.116 16.662 4.2184 25.551 5.5259 46.357 6.818 7.4196 0.46084 13.58 0.92981 13.689 1.0422 0.2404 0.24758-3.4639 24.867-4.8733 32.389-10.34 55.181-33.813 120.97-60.554 169.71-20.24 36.893-42.408 67.236-68.554 93.836-23.638 24.047-45.785 40.992-74.244 56.805-4.0269 2.2375-7.6188 4.0658-7.982 4.0627-0.36314 0-4.3578-2.0811-8.877-4.6178zm15.208-48.261c54.48-35.874 99.019-95.095 131.59-174.96 10.133-24.852 19.603-54.184 26.26-81.336 1.1396-4.6482 2.0738-8.6867 2.0762-8.9741 0-0.28748-1.8446-0.88232-4.1042-1.3219-23.028-4.4796-51.416-13.858-76.915-25.409-26.274-11.902-57.618-29.389-81.294-45.355-1.8606-1.2546-3.6118-2.2812-3.8916-2.2812-0.2798 0-2.3494 1.2333-4.5991 2.7407-30.682 20.558-67.196 40.007-98.435 52.431-20.211 8.0381-41.271 14.41-59.073 17.873-2.3414 0.45549-4.1084 1.0332-4.1084 1.3433 0 1.077 5.1826 21.349 7.6904 30.081 23.358 81.334 60.009 149.4 105.89 196.66 9.2536 9.5308 21.88 20.707 32.484 28.753 4.3669 3.3133 19.632 13.803 20.094 13.809 0.10064 0 2.953-1.8221 6.3386-4.0514zm-29.294-90.38v-27.291l-1.526 0.31336c-5.2136 1.0708-12.855 2.1813-19.368 2.8146-11.965 1.1638-37.327 2.1644-37.327 1.4728 0-0.11646 2.4004-3.8668 5.3343-8.3341 8.6357-13.149 15.129-24.408 22.016-38.172 4.2793-8.5523 10.378-22.292 10.043-22.627-0.11181-0.11176-1.769 0.1201-3.6828 0.51538-3.2631 0.67409-14.782 1.9033-21.403 2.2842-3.4883 0.20064-3.4923 0.33678 0.13333-4.5658 8.7754-11.866 47.091-73.797 66.459-107.42 1.151-1.9982 2.1984-3.6262 2.3275-3.6178 0.12911 0.0107 4.7563 7.665 10.283 17.015 25.017 42.324 50.191 82.783 58.504 94.024 3.6256 4.9026 3.6217 4.7664 0.1333 4.5658-6.6216-0.38084-18.14-1.6101-21.403-2.2842-1.9137-0.39528-3.571-0.62714-3.6828-0.51538-0.33466 0.33464 5.7642 14.075 10.043 22.627 6.8872 13.764 13.381 25.023 22.016 38.172 2.9338 4.4673 5.3342 8.2176 5.3342 8.3341 0 0.69163-25.362-0.30897-37.327-1.4728-6.5126-0.63334-14.154-1.7439-19.368-2.8146l-1.526-0.31336v54.582h-46.014z" stroke-width=".37562"/></svg>
