<?xml version="1.0" encoding="UTF-8"?>
<svg version="1.1" viewBox="0 0 512 512" xml:space="preserve" xmlns="http://www.w3.org/2000/svg" xmlns:cc="http://creativecommons.org/ns#" xmlns:dc="http://purl.org/dc/elements/1.1/" xmlns:rdf="http://www.w3.org/1999/02/22-rdf-syntax-ns#"><metadata><rdf:RDF><cc:Work rdf:about=""><dc:format>image/svg+xml</dc:format><dc:type rdf:resource="http://purl.org/dc/dcmitype/StillImage"/></cc:Work></rdf:RDF></metadata><defs><clipPath id="c"><path d="m382.39 459.3c-29.947-10.054-44.536-15.646-65.827-25.233-48.209-21.707-92.487-49.834-130.57-82.941-62.671-54.483-111.85-125.99-136.64-198.67-2.6791-7.8551-13.628-49.898-13.081-50.227 0.12703-0.0762 16.074-0.74709 35.437-1.4908 35.336-1.3571 48.521-2.2301 64.185-4.2496 71.861-9.2647 162.03-36.18 243.39-72.652 11-4.9308 20.322-8.9651 20.718-8.9651 0.39523 0 9.7182 4.0334 20.718 8.9631 89.238 39.995 188.25 68.196 262.1 74.654 5.649 0.49396 26.114 1.5066 45.477 2.2503 19.363 0.7437 35.313 1.4164 35.444 1.4949 0.55269 0.33161-10.391 42.318-13.109 50.291-20.999 61.613-60.947 124.55-110.72 174.43-38.696 38.78-84.216 71.409-135.83 97.362-17.614 8.8578-42.808 19.674-61.896 26.573-5.628 2.0342-42.295 14.335-42.468 14.246-0.0458-0.0234-7.8434-2.6482-17.328-5.8324z" fill="#ffa500" stroke-width=".45462"/></clipPath><clipPath id="b"><path d="m382.39 459.3c-29.947-10.054-44.536-15.646-65.827-25.233-48.209-21.707-92.487-49.834-130.57-82.941-62.671-54.483-111.85-125.99-136.64-198.67-2.6791-7.8551-13.628-49.898-13.081-50.227 0.12703-0.0762 16.074-0.74709 35.437-1.4908 35.336-1.3571 48.521-2.2301 64.185-4.2496 71.861-9.2647 162.03-36.18 243.39-72.652 11-4.9308 20.322-8.9651 20.718-8.9651 0.39523 0 9.7182 4.0334 20.718 8.9631 89.238 39.995 188.25 68.196 262.1 74.654 5.649 0.49396 26.114 1.5066 45.477 2.2503 19.363 0.7437 35.313 1.4164 35.444 1.4949 0.55269 0.33161-10.391 42.318-13.109 50.291-20.999 61.613-60.947 124.55-110.72 174.43-38.696 38.78-84.216 71.409-135.83 97.362-17.614 8.8578-42.808 19.674-61.896 26.573-5.628 2.0342-42.295 14.335-42.468 14.246-0.0458-0.0234-7.8434-2.6482-17.328-5.8324z" fill="#ffa500" stroke-width=".45462"/></clipPath><clipPath id="a"><path d="m382.39 459.3c-29.947-10.054-44.536-15.646-65.827-25.233-48.209-21.707-92.487-49.834-130.57-82.941-62.671-54.483-111.85-125.99-136.64-198.67-2.6791-7.8551-13.628-49.898-13.081-50.227 0.12703-0.0762 16.074-0.74709 35.437-1.4908 35.336-1.3571 48.521-2.2301 64.185-4.2496 71.861-9.2647 162.03-36.18 243.39-72.652 11-4.9308 20.322-8.9651 20.718-8.9651 0.39523 0 9.7182 4.0334 20.718 8.9631 89.238 39.995 188.25 68.196 262.1 74.654 5.649 0.49396 26.114 1.5066 45.477 2.2503 19.363 0.7437 35.313 1.4164 35.444 1.4949 0.55269 0.33161-10.391 42.318-13.109 50.291-20.999 61.613-60.947 124.55-110.72 174.43-38.696 38.78-84.216 71.409-135.83 97.362-17.614 8.8578-42.808 19.674-61.896 26.573-5.628 2.0342-42.295 14.335-42.468 14.246-0.0458-0.0234-7.8434-2.6482-17.328-5.8324z" fill="#ffa500" stroke-width=".45462"/></clipPath></defs><g transform="scale(.64 1.0667)"><rect width="800" height="480" clip-path="url(#a)" fill="#5bcefa"/><rect y="96" width="800" height="288" clip-path="url(#b)" fill="#f5a9b8"/><rect y="192" width="800" height="96" clip-path="url(#c)" fill="#fff"/></g><path d="m247.08 474.21c-28.341-15.908-49.804-32.388-73.261-56.25-43.789-44.546-78.295-102.19-104.37-174.36-10.138-28.056-19.823-62.978-24.734-89.185-1.4094-7.5214-5.1137-32.141-4.8732-32.389 0.1092-0.1124 6.2691-0.58137 13.689-1.0422 20.806-1.2921 29.695-2.5996 46.357-6.818 43.954-11.128 100.79-39.945 148.25-75.161l7.8646-5.8358 7.8646 5.8358c9.9884 7.4118 16.787 12.141 25.941 18.046 42.932 27.691 86.562 48.065 122.31 57.116 16.662 4.2184 25.551 5.5259 46.357 6.818 7.4196 0.46084 13.58 0.92981 13.689 1.0422 0.2404 0.24758-3.4639 24.867-4.8733 32.389-10.34 55.181-33.813 120.97-60.554 169.71-20.24 36.893-42.408 67.236-68.554 93.836-23.638 24.047-45.785 40.992-74.244 56.805-4.0269 2.2375-7.6188 4.0658-7.982 4.0627-0.36314 0-4.3578-2.0811-8.877-4.6178zm15.208-48.261c54.48-35.874 99.019-95.095 131.59-174.96 10.133-24.852 19.603-54.184 26.26-81.336 1.1396-4.6482 2.0738-8.6867 2.0762-8.9741 0-0.28748-1.8446-0.88232-4.1042-1.3219-23.028-4.4796-51.416-13.858-76.915-25.409-26.274-11.902-57.618-29.389-81.294-45.355-1.8606-1.2546-3.6118-2.2812-3.8916-2.2812-0.2798 0-2.3494 1.2333-4.5991 2.7407-30.682 20.558-67.196 40.007-98.435 52.431-20.211 8.0381-41.271 14.41-59.073 17.873-2.3414 0.45549-4.1084 1.0332-4.1084 1.3433 0 1.077 5.1826 21.349 7.6904 30.081 23.358 81.334 60.009 149.4 105.89 196.66 9.2536 9.5308 21.88 20.707 32.484 28.753 4.3669 3.3133 19.632 13.803 20.094 13.809 0.10064 0 2.953-1.8221 6.3386-4.0514zm-29.294-90.38v-27.291l-1.526 0.31336c-5.2136 1.0708-12.855 2.1813-19.368 2.8146-11.965 1.1638-37.327 2.1644-37.327 1.4728 0-0.11646 2.4004-3.8668 5.3343-8.3341 8.6357-13.149 15.129-24.408 22.016-38.172 4.2793-8.5523 10.378-22.292 10.043-22.627-0.11181-0.11176-1.769 0.1201-3.6828 0.51538-3.2631 0.67409-14.782 1.9033-21.403 2.2842-3.4883 0.20064-3.4923 0.33678 0.13333-4.5658 8.7754-11.866 47.091-73.797 66.459-107.42 1.151-1.9982 2.1984-3.6262 2.3275-3.6178 0.12911 0.0107 4.7563 7.665 10.283 17.015 25.017 42.324 50.191 82.783 58.504 94.024 3.6256 4.9026 3.6217 4.7664 0.1333 4.5658-6.6216-0.38084-18.14-1.6101-21.403-2.2842-1.9137-0.39528-3.571-0.62714-3.6828-0.51538-0.33466 0.33464 5.7642 14.075 10.043 22.627 6.8872 13.764 13.381 25.023 22.016 38.172 2.9338 4.4673 5.3342 8.2176 5.3342 8.3341 0 0.69163-25.362-0.30897-37.327-1.4728-6.5126-0.63334-14.154-1.7439-19.368-2.8146l-1.526-0.31336v54.582h-46.014z" stroke-width=".37562"/></svg>
