<svg version="1.0" xmlns="http://www.w3.org/2000/svg" width="933.333" height="933.333" viewBox="0 0 700 700"><path d="M335 52.7c-32.3 23.8-67.9 45.6-105 64.2-27.7 13.8-43.2 20.5-66.6 28.7-31.8 11.1-53.2 15.5-88.1 18.2-12.8 1-23.6 2.1-24 2.5-1.8 1.8 6.7 50.1 14.2 80.2 20 81 51.1 157.9 89.6 221.7C194 532.5 244.3 587.8 298 625.1c10 7 33.6 21.4 43.1 26.4l5.7 2.9 15.3-8.8c38.3-21.9 68.1-45.4 100-78.4C529.3 497.7 581 403.8 616.5 287c10.2-33.5 17.8-66.7 22.6-98.8 2.5-16.7 3-21.5 2-22.1-.7-.5-6.5-1.1-12.9-1.5-39.5-2.2-64.1-7-98.2-18.9-23.8-8.3-39.2-14.9-67-28.8-40.9-20.5-75.5-42-113.5-70.5l-3-2.2-11.5 8.5zm18.8 69.2c34 23 92.4 54.3 128.7 68.9 27.8 11.2 57.2 20.5 79.8 25.2 8 1.7 10.7 2.6 10.7 3.8 0 2.1-6.3 26.9-11 43.3-22.8 79.1-57.5 153.5-98.2 210.6-25.4 35.6-58 69.9-88.6 93.1-15.8 12.1-28.5 20.1-30.1 19.2-4.4-2.3-27.8-19.3-36.6-26.5C225.3 491.1 162 381.4 124.9 241c-2.7-10.2-4.9-19.5-4.9-20.6 0-1.7.8-2.3 3.8-2.8 9-1.7 36.3-8.9 49.4-13.2 48.8-15.9 106.6-44.1 155.8-76.2 8.5-5.5 16.3-10.1 17.3-10.1 1-.1 4.4 1.6 7.5 3.8z"/><path d="M337.5 192.7c-25.3 42.9-66.7 109.9-80.8 130.6-4.4 6.4-7.7 12-7.3 12.4.9.9 9 .5 23.4-1.3 6.8-.9 12.6-1.4 12.8-1.1 1.1 1.1-16.9 38.5-27 56-3.1 5.3-9.6 16-14.6 23.7l-8.9 14h13.2c20.2 0 53.1-2.9 64.5-5.7l2.2-.5V496l31.3-.2 31.2-.3.3-37.4.2-37.3 2.3.5c4.9 1.2 25 3.7 37.6 4.7 15 1.1 39.1 1.4 39.1.4 0-.4-3.8-6.6-8.4-13.8-11.3-17.8-18.5-30.4-27.2-47.6-7.8-15.5-14.7-31-14.1-31.7.2-.2 6 .3 12.8 1.1 14.6 1.8 22.6 2.2 23.5 1.3.3-.3-3.9-7.3-9.3-15.4-13.8-20.4-30.8-47.9-60.9-98-14.2-23.6-26-43.2-26.4-43.6-.5-.5-4.7 5.8-9.5 14z"/></svg>